<?xml version="1.0" encoding="UTF-8"?>
<svg xmlns="http://www.w3.org/2000/svg" xmlns:xlink="http://www.w3.org/1999/xlink" width="500pt" height="300pt" viewBox="0 0 500 300" version="1.1">
<defs>
<clipPath id="clip1">
  <path d="M 45 190 L 113 190 L 113 269.839844 L 45 269.839844 Z M 45 190 "/>
</clipPath>
<clipPath id="clip2">
  <path d="M 324 111 L 392 111 L 392 269.839844 L 324 269.839844 Z M 324 111 "/>
</clipPath>
<clipPath id="clip3">
  <path d="M 417 190 L 485 190 L 485 269.839844 L 417 269.839844 Z M 417 190 "/>
</clipPath>
</defs>
<g id="surface392695">
<rect x="0" y="0" width="500" height="300" style="fill:rgb(100%,100%,100%);fill-opacity:1;stroke:none;"/>
<path style=" stroke:none;fill-rule:nonzero;fill:rgb(94.509804%,18.039216%,18.823529%);fill-opacity:0.776471;" d="M 111 10 L 151 10 L 151 22 L 111 22 Z M 111 10 "/>
<path style=" stroke:none;fill-rule:nonzero;fill:rgb(40%,40%,40%);fill-opacity:1;" d="M 159.109375 12.816406 L 159.109375 15.894531 L 163.703125 15.894531 L 163.703125 16.816406 L 159.109375 16.816406 L 159.109375 20.160156 L 157.984375 20.160156 L 157.984375 11.910156 L 163.84375 11.910156 L 163.84375 12.816406 Z M 166.421875 20.285156 C 165.785156 20.285156 165.304688 20.121094 164.984375 19.785156 C 164.671875 19.441406 164.515625 18.980469 164.515625 18.394531 C 164.515625 17.738281 164.726562 17.234375 165.15625 16.878906 C 165.59375 16.527344 166.289062 16.339844 167.25 16.316406 L 168.671875 16.285156 L 168.671875 15.941406 C 168.671875 15.433594 168.5625 15.066406 168.34375 14.847656 C 168.125 14.621094 167.78125 14.503906 167.3125 14.503906 C 166.84375 14.503906 166.5 14.589844 166.28125 14.753906 C 166.0625 14.910156 165.929688 15.167969 165.890625 15.519531 L 164.796875 15.410156 C 164.972656 14.277344 165.816406 13.707031 167.328125 13.707031 C 168.128906 13.707031 168.726562 13.890625 169.125 14.253906 C 169.53125 14.621094 169.734375 15.144531 169.734375 15.832031 L 169.734375 18.566406 C 169.734375 18.878906 169.773438 19.113281 169.859375 19.269531 C 169.941406 19.425781 170.097656 19.503906 170.328125 19.503906 C 170.429688 19.503906 170.546875 19.496094 170.671875 19.472656 L 170.671875 20.128906 C 170.410156 20.191406 170.140625 20.222656 169.859375 20.222656 C 169.472656 20.222656 169.1875 20.121094 169 19.910156 C 168.820312 19.703125 168.722656 19.378906 168.703125 18.941406 L 168.671875 18.941406 C 168.398438 19.433594 168.082031 19.78125 167.71875 19.988281 C 167.363281 20.183594 166.929688 20.285156 166.421875 20.285156 Z M 166.671875 19.488281 C 167.054688 19.488281 167.398438 19.402344 167.703125 19.222656 C 168.003906 19.046875 168.238281 18.808594 168.40625 18.503906 C 168.582031 18.191406 168.671875 17.875 168.671875 17.550781 L 168.671875 17.035156 L 167.515625 17.050781 C 167.015625 17.0625 166.632812 17.113281 166.375 17.207031 C 166.125 17.300781 165.929688 17.449219 165.796875 17.644531 C 165.660156 17.832031 165.59375 18.089844 165.59375 18.410156 C 165.59375 18.753906 165.6875 19.019531 165.875 19.207031 C 166.0625 19.394531 166.328125 19.488281 166.671875 19.488281 Z M 171.796875 20.160156 L 171.796875 13.816406 L 172.859375 13.816406 L 172.859375 20.160156 Z M 171.796875 12.472656 L 171.796875 11.457031 L 172.859375 11.457031 L 172.859375 12.472656 Z M 174.8125 20.160156 L 174.8125 11.457031 L 175.859375 11.457031 L 175.859375 20.160156 Z M 178.625 17.207031 C 178.625 17.9375 178.769531 18.5 179.0625 18.894531 C 179.363281 19.292969 179.804688 19.488281 180.390625 19.488281 C 180.847656 19.488281 181.210938 19.402344 181.484375 19.222656 C 181.765625 19.035156 181.953125 18.800781 182.046875 18.519531 L 182.96875 18.769531 C 182.59375 19.78125 181.734375 20.285156 180.390625 20.285156 C 179.453125 20.285156 178.738281 20.003906 178.25 19.441406 C 177.757812 18.878906 177.515625 18.046875 177.515625 16.941406 C 177.515625 15.902344 177.757812 15.105469 178.25 14.550781 C 178.738281 13.988281 179.4375 13.707031 180.34375 13.707031 C 182.207031 13.707031 183.140625 14.828125 183.140625 17.066406 L 183.140625 17.207031 Z M 182.046875 16.410156 C 181.992188 15.734375 181.828125 15.246094 181.546875 14.941406 C 181.265625 14.640625 180.859375 14.488281 180.328125 14.488281 C 179.816406 14.488281 179.410156 14.660156 179.109375 15.003906 C 178.816406 15.339844 178.65625 15.808594 178.625 16.410156 Z M 188.8125 19.144531 C 188.613281 19.550781 188.351562 19.84375 188.03125 20.019531 C 187.707031 20.195312 187.3125 20.285156 186.84375 20.285156 C 186.039062 20.285156 185.445312 20.015625 185.0625 19.472656 C 184.6875 18.933594 184.5 18.113281 184.5 17.019531 C 184.5 14.8125 185.28125 13.707031 186.84375 13.707031 C 187.320312 13.707031 187.71875 13.796875 188.03125 13.972656 C 188.351562 14.140625 188.613281 14.417969 188.8125 14.800781 L 188.828125 14.800781 L 188.8125 14.097656 L 188.8125 11.457031 L 189.859375 11.457031 L 189.859375 18.847656 C 189.859375 19.515625 189.875 19.953125 189.90625 20.160156 L 188.890625 20.160156 C 188.878906 20.097656 188.863281 19.953125 188.84375 19.722656 C 188.832031 19.496094 188.828125 19.300781 188.828125 19.144531 Z M 185.609375 16.988281 C 185.609375 17.875 185.722656 18.511719 185.953125 18.894531 C 186.191406 19.269531 186.578125 19.457031 187.109375 19.457031 C 187.703125 19.457031 188.132812 19.253906 188.40625 18.847656 C 188.675781 18.433594 188.8125 17.785156 188.8125 16.910156 C 188.8125 16.078125 188.675781 15.46875 188.40625 15.082031 C 188.132812 14.6875 187.707031 14.488281 187.125 14.488281 C 186.59375 14.488281 186.207031 14.6875 185.96875 15.082031 C 185.726562 15.46875 185.609375 16.105469 185.609375 16.988281 Z M 202.09375 15.941406 C 202.09375 16.796875 201.925781 17.546875 201.59375 18.191406 C 201.257812 18.828125 200.785156 19.316406 200.171875 19.660156 C 199.566406 19.996094 198.867188 20.160156 198.078125 20.160156 L 194.984375 20.160156 L 194.984375 11.910156 L 197.71875 11.910156 C 199.113281 11.910156 200.191406 12.261719 200.953125 12.957031 C 201.710938 13.65625 202.09375 14.652344 202.09375 15.941406 Z M 200.96875 15.941406 C 200.96875 14.921875 200.6875 14.144531 200.125 13.613281 C 199.5625 13.074219 198.75 12.800781 197.6875 12.800781 L 196.109375 12.800781 L 196.109375 19.269531 L 197.9375 19.269531 C 198.550781 19.269531 199.085938 19.140625 199.546875 18.878906 C 200.003906 18.609375 200.351562 18.222656 200.59375 17.722656 C 200.84375 17.222656 200.96875 16.628906 200.96875 15.941406 Z M 204.625 17.207031 C 204.625 17.9375 204.769531 18.5 205.0625 18.894531 C 205.363281 19.292969 205.804688 19.488281 206.390625 19.488281 C 206.847656 19.488281 207.210938 19.402344 207.484375 19.222656 C 207.765625 19.035156 207.953125 18.800781 208.046875 18.519531 L 208.96875 18.769531 C 208.59375 19.78125 207.734375 20.285156 206.390625 20.285156 C 205.453125 20.285156 204.738281 20.003906 204.25 19.441406 C 203.757812 18.878906 203.515625 18.046875 203.515625 16.941406 C 203.515625 15.902344 203.757812 15.105469 204.25 14.550781 C 204.738281 13.988281 205.4375 13.707031 206.34375 13.707031 C 208.207031 13.707031 209.140625 14.828125 209.140625 17.066406 L 209.140625 17.207031 Z M 208.046875 16.410156 C 207.992188 15.734375 207.828125 15.246094 207.546875 14.941406 C 207.265625 14.640625 206.859375 14.488281 206.328125 14.488281 C 205.816406 14.488281 205.410156 14.660156 205.109375 15.003906 C 204.816406 15.339844 204.65625 15.808594 204.625 16.410156 Z M 216.171875 16.957031 C 216.171875 19.175781 215.394531 20.285156 213.84375 20.285156 C 212.863281 20.285156 212.207031 19.917969 211.875 19.175781 L 211.84375 19.175781 C 211.851562 19.207031 211.859375 19.542969 211.859375 20.175781 L 211.859375 22.644531 L 210.8125 22.644531 L 210.8125 15.113281 C 210.8125 14.457031 210.800781 14.027344 210.78125 13.816406 L 211.796875 13.816406 C 211.796875 13.839844 211.800781 13.894531 211.8125 13.988281 C 211.820312 14.082031 211.832031 14.230469 211.84375 14.425781 C 211.851562 14.625 211.859375 14.761719 211.859375 14.832031 L 211.875 14.832031 C 212.0625 14.449219 212.304688 14.167969 212.609375 13.988281 C 212.921875 13.800781 213.332031 13.707031 213.84375 13.707031 C 214.625 13.707031 215.207031 13.972656 215.59375 14.503906 C 215.976562 15.027344 216.171875 15.84375 216.171875 16.957031 Z M 215.0625 16.988281 C 215.0625 16.105469 214.941406 15.472656 214.703125 15.097656 C 214.460938 14.714844 214.082031 14.519531 213.5625 14.519531 C 213.144531 14.519531 212.816406 14.609375 212.578125 14.785156 C 212.347656 14.964844 212.171875 15.238281 212.046875 15.613281 C 211.921875 15.988281 211.859375 16.472656 211.859375 17.066406 C 211.859375 17.902344 211.988281 18.515625 212.25 18.910156 C 212.519531 19.308594 212.957031 19.503906 213.5625 19.503906 C 214.082031 19.503906 214.460938 19.3125 214.703125 18.925781 C 214.941406 18.542969 215.0625 17.894531 215.0625 16.988281 Z M 217.8125 20.160156 L 217.8125 11.457031 L 218.859375 11.457031 L 218.859375 20.160156 Z M 226.171875 16.988281 C 226.171875 18.09375 225.925781 18.921875 225.4375 19.472656 C 224.945312 20.015625 224.238281 20.285156 223.3125 20.285156 C 222.382812 20.285156 221.679688 20.003906 221.203125 19.441406 C 220.734375 18.871094 220.5 18.050781 220.5 16.988281 C 220.5 14.800781 221.445312 13.707031 223.34375 13.707031 C 224.3125 13.707031 225.023438 13.972656 225.484375 14.503906 C 225.941406 15.035156 226.171875 15.863281 226.171875 16.988281 Z M 225.0625 16.988281 C 225.0625 16.113281 224.929688 15.480469 224.671875 15.082031 C 224.410156 14.6875 223.972656 14.488281 223.359375 14.488281 C 222.742188 14.488281 222.296875 14.691406 222.015625 15.097656 C 221.742188 15.496094 221.609375 16.125 221.609375 16.988281 C 221.609375 17.824219 221.742188 18.453125 222.015625 18.878906 C 222.285156 19.296875 222.710938 19.503906 223.296875 19.503906 C 223.929688 19.503906 224.382812 19.300781 224.65625 18.894531 C 224.925781 18.488281 225.0625 17.855469 225.0625 16.988281 Z M 228.125 22.644531 C 227.832031 22.644531 227.585938 22.621094 227.390625 22.582031 L 227.390625 21.800781 C 227.535156 21.820312 227.703125 21.832031 227.890625 21.832031 C 228.546875 21.832031 229.0625 21.347656 229.4375 20.378906 L 229.546875 20.128906 L 227.03125 13.816406 L 228.15625 13.816406 L 229.484375 17.316406 C 229.503906 17.378906 229.53125 17.449219 229.5625 17.519531 C 229.59375 17.59375 229.679688 17.847656 229.828125 18.285156 C 229.972656 18.722656 230.050781 18.964844 230.0625 19.003906 L 230.46875 17.863281 L 231.859375 13.816406 L 232.984375 13.816406 L 230.546875 20.160156 C 230.273438 20.835938 230.023438 21.335938 229.796875 21.660156 C 229.578125 21.992188 229.328125 22.238281 229.046875 22.394531 C 228.773438 22.558594 228.46875 22.644531 228.125 22.644531 Z M 238.5625 18.410156 C 238.5625 19.003906 238.335938 19.46875 237.890625 19.800781 C 237.441406 20.125 236.8125 20.285156 236 20.285156 C 235.207031 20.285156 234.597656 20.15625 234.171875 19.894531 C 233.742188 19.636719 233.460938 19.230469 233.328125 18.675781 L 234.265625 18.488281 C 234.359375 18.832031 234.546875 19.082031 234.828125 19.238281 C 235.109375 19.394531 235.5 19.472656 236 19.472656 C 236.53125 19.472656 236.921875 19.394531 237.171875 19.238281 C 237.421875 19.074219 237.546875 18.824219 237.546875 18.488281 C 237.546875 18.238281 237.457031 18.035156 237.28125 17.878906 C 237.113281 17.722656 236.835938 17.59375 236.453125 17.488281 L 235.703125 17.300781 C 235.085938 17.144531 234.648438 16.996094 234.390625 16.847656 C 234.140625 16.691406 233.941406 16.503906 233.796875 16.285156 C 233.660156 16.066406 233.59375 15.800781 233.59375 15.488281 C 233.59375 14.917969 233.796875 14.480469 234.203125 14.175781 C 234.617188 13.875 235.21875 13.722656 236 13.722656 C 236.707031 13.722656 237.265625 13.847656 237.671875 14.097656 C 238.085938 14.339844 238.347656 14.730469 238.453125 15.269531 L 237.5 15.394531 C 237.445312 15.113281 237.289062 14.902344 237.03125 14.753906 C 236.78125 14.597656 236.4375 14.519531 236 14.519531 C 235.53125 14.519531 235.179688 14.59375 234.953125 14.738281 C 234.722656 14.886719 234.609375 15.105469 234.609375 15.394531 C 234.609375 15.574219 234.65625 15.71875 234.75 15.832031 C 234.84375 15.949219 234.976562 16.046875 235.15625 16.128906 C 235.34375 16.214844 235.734375 16.328125 236.328125 16.472656 C 236.890625 16.621094 237.289062 16.75 237.53125 16.863281 C 237.78125 16.980469 237.972656 17.109375 238.109375 17.253906 C 238.253906 17.402344 238.363281 17.574219 238.4375 17.769531 C 238.519531 17.957031 238.5625 18.171875 238.5625 18.410156 Z M 157 9.296875 "/>
<path style=" stroke:none;fill-rule:nonzero;fill:rgb(18.039216%,47.058824%,94.901961%);fill-opacity:0.776471;" d="M 249 10 L 289 10 L 289 22 L 249 22 Z M 249 10 "/>
<path style=" stroke:none;fill-rule:nonzero;fill:rgb(40%,40%,40%);fill-opacity:1;" d="M 302.453125 17.878906 C 302.453125 18.640625 302.15625 19.234375 301.5625 19.660156 C 300.96875 20.078125 300.128906 20.285156 299.046875 20.285156 C 297.035156 20.285156 295.867188 19.582031 295.546875 18.175781 L 296.625 17.957031 C 296.75 18.457031 297.015625 18.828125 297.421875 19.066406 C 297.828125 19.296875 298.378906 19.410156 299.078125 19.410156 C 299.804688 19.410156 300.363281 19.285156 300.75 19.035156 C 301.144531 18.785156 301.34375 18.421875 301.34375 17.941406 C 301.34375 17.671875 301.28125 17.453125 301.15625 17.285156 C 301.039062 17.121094 300.867188 16.984375 300.640625 16.878906 C 300.421875 16.765625 300.15625 16.671875 299.84375 16.597656 C 299.539062 16.515625 299.203125 16.433594 298.828125 16.347656 C 298.171875 16.203125 297.671875 16.0625 297.328125 15.925781 C 296.992188 15.78125 296.726562 15.621094 296.53125 15.441406 C 296.34375 15.253906 296.195312 15.046875 296.09375 14.816406 C 295.988281 14.578125 295.9375 14.300781 295.9375 13.988281 C 295.9375 13.28125 296.207031 12.738281 296.75 12.363281 C 297.289062 11.980469 298.0625 11.785156 299.0625 11.785156 C 300 11.785156 300.71875 11.933594 301.21875 12.222656 C 301.71875 12.503906 302.066406 12.988281 302.265625 13.675781 L 301.15625 13.878906 C 301.039062 13.441406 300.8125 13.125 300.46875 12.925781 C 300.125 12.730469 299.65625 12.628906 299.0625 12.628906 C 298.394531 12.628906 297.882812 12.738281 297.53125 12.957031 C 297.1875 13.175781 297.015625 13.5 297.015625 13.925781 C 297.015625 14.1875 297.082031 14.402344 297.21875 14.566406 C 297.351562 14.734375 297.546875 14.875 297.796875 14.988281 C 298.054688 15.105469 298.566406 15.246094 299.328125 15.410156 C 299.578125 15.464844 299.828125 15.519531 300.078125 15.582031 C 300.335938 15.644531 300.582031 15.71875 300.8125 15.800781 C 301.039062 15.886719 301.253906 15.984375 301.453125 16.097656 C 301.648438 16.214844 301.820312 16.355469 301.96875 16.519531 C 302.125 16.675781 302.242188 16.871094 302.328125 17.097656 C 302.410156 17.316406 302.453125 17.578125 302.453125 17.878906 Z M 304.84375 13.816406 L 304.84375 17.832031 C 304.84375 18.261719 304.882812 18.589844 304.96875 18.816406 C 305.050781 19.046875 305.179688 19.214844 305.359375 19.316406 C 305.535156 19.410156 305.796875 19.457031 306.140625 19.457031 C 306.648438 19.457031 307.050781 19.285156 307.34375 18.941406 C 307.632812 18.597656 307.78125 18.113281 307.78125 17.488281 L 307.78125 13.816406 L 308.84375 13.816406 L 308.84375 18.800781 C 308.84375 19.542969 308.851562 19.996094 308.875 20.160156 L 307.875 20.160156 C 307.875 20.140625 307.867188 20.089844 307.859375 20.003906 C 307.859375 19.921875 307.851562 19.824219 307.84375 19.707031 C 307.84375 19.59375 307.835938 19.386719 307.828125 19.082031 L 307.8125 19.082031 C 307.570312 19.519531 307.289062 19.832031 306.96875 20.019531 C 306.65625 20.195312 306.265625 20.285156 305.796875 20.285156 C 305.097656 20.285156 304.585938 20.113281 304.265625 19.769531 C 303.941406 19.417969 303.78125 18.84375 303.78125 18.050781 L 303.78125 13.816406 Z M 311.609375 16.957031 C 311.609375 17.800781 311.738281 18.425781 312 18.832031 C 312.269531 19.238281 312.675781 19.441406 313.21875 19.441406 C 313.59375 19.441406 313.90625 19.34375 314.15625 19.144531 C 314.40625 18.9375 314.5625 18.625 314.625 18.207031 L 315.6875 18.269531 C 315.601562 18.886719 315.34375 19.375 314.90625 19.738281 C 314.46875 20.105469 313.910156 20.285156 313.234375 20.285156 C 312.347656 20.285156 311.671875 20.003906 311.203125 19.441406 C 310.742188 18.878906 310.515625 18.0625 310.515625 16.988281 C 310.515625 15.917969 310.75 15.105469 311.21875 14.550781 C 311.6875 13.988281 312.359375 13.707031 313.234375 13.707031 C 313.878906 13.707031 314.414062 13.875 314.84375 14.207031 C 315.269531 14.542969 315.539062 15.003906 315.65625 15.597656 L 314.5625 15.675781 C 314.507812 15.324219 314.367188 15.046875 314.140625 14.847656 C 313.921875 14.640625 313.609375 14.535156 313.203125 14.535156 C 312.640625 14.535156 312.234375 14.722656 311.984375 15.097656 C 311.734375 15.464844 311.609375 16.082031 311.609375 16.957031 Z M 317.609375 16.957031 C 317.609375 17.800781 317.738281 18.425781 318 18.832031 C 318.269531 19.238281 318.675781 19.441406 319.21875 19.441406 C 319.59375 19.441406 319.90625 19.34375 320.15625 19.144531 C 320.40625 18.9375 320.5625 18.625 320.625 18.207031 L 321.6875 18.269531 C 321.601562 18.886719 321.34375 19.375 320.90625 19.738281 C 320.46875 20.105469 319.910156 20.285156 319.234375 20.285156 C 318.347656 20.285156 317.671875 20.003906 317.203125 19.441406 C 316.742188 18.878906 316.515625 18.0625 316.515625 16.988281 C 316.515625 15.917969 316.75 15.105469 317.21875 14.550781 C 317.6875 13.988281 318.359375 13.707031 319.234375 13.707031 C 319.878906 13.707031 320.414062 13.875 320.84375 14.207031 C 321.269531 14.542969 321.539062 15.003906 321.65625 15.597656 L 320.5625 15.675781 C 320.507812 15.324219 320.367188 15.046875 320.140625 14.847656 C 319.921875 14.640625 319.609375 14.535156 319.203125 14.535156 C 318.640625 14.535156 318.234375 14.722656 317.984375 15.097656 C 317.734375 15.464844 317.609375 16.082031 317.609375 16.957031 Z M 323.625 17.207031 C 323.625 17.9375 323.769531 18.5 324.0625 18.894531 C 324.363281 19.292969 324.804688 19.488281 325.390625 19.488281 C 325.847656 19.488281 326.210938 19.402344 326.484375 19.222656 C 326.765625 19.035156 326.953125 18.800781 327.046875 18.519531 L 327.96875 18.769531 C 327.59375 19.78125 326.734375 20.285156 325.390625 20.285156 C 324.453125 20.285156 323.738281 20.003906 323.25 19.441406 C 322.757812 18.878906 322.515625 18.046875 322.515625 16.941406 C 322.515625 15.902344 322.757812 15.105469 323.25 14.550781 C 323.738281 13.988281 324.4375 13.707031 325.34375 13.707031 C 327.207031 13.707031 328.140625 14.828125 328.140625 17.066406 L 328.140625 17.207031 Z M 327.046875 16.410156 C 326.992188 15.734375 326.828125 15.246094 326.546875 14.941406 C 326.265625 14.640625 325.859375 14.488281 325.328125 14.488281 C 324.816406 14.488281 324.410156 14.660156 324.109375 15.003906 C 323.816406 15.339844 323.65625 15.808594 323.625 16.410156 Z M 334.5625 18.410156 C 334.5625 19.003906 334.335938 19.46875 333.890625 19.800781 C 333.441406 20.125 332.8125 20.285156 332 20.285156 C 331.207031 20.285156 330.597656 20.15625 330.171875 19.894531 C 329.742188 19.636719 329.460938 19.230469 329.328125 18.675781 L 330.265625 18.488281 C 330.359375 18.832031 330.546875 19.082031 330.828125 19.238281 C 331.109375 19.394531 331.5 19.472656 332 19.472656 C 332.53125 19.472656 332.921875 19.394531 333.171875 19.238281 C 333.421875 19.074219 333.546875 18.824219 333.546875 18.488281 C 333.546875 18.238281 333.457031 18.035156 333.28125 17.878906 C 333.113281 17.722656 332.835938 17.59375 332.453125 17.488281 L 331.703125 17.300781 C 331.085938 17.144531 330.648438 16.996094 330.390625 16.847656 C 330.140625 16.691406 329.941406 16.503906 329.796875 16.285156 C 329.660156 16.066406 329.59375 15.800781 329.59375 15.488281 C 329.59375 14.917969 329.796875 14.480469 330.203125 14.175781 C 330.617188 13.875 331.21875 13.722656 332 13.722656 C 332.707031 13.722656 333.265625 13.847656 333.671875 14.097656 C 334.085938 14.339844 334.347656 14.730469 334.453125 15.269531 L 333.5 15.394531 C 333.445312 15.113281 333.289062 14.902344 333.03125 14.753906 C 332.78125 14.597656 332.4375 14.519531 332 14.519531 C 331.53125 14.519531 331.179688 14.59375 330.953125 14.738281 C 330.722656 14.886719 330.609375 15.105469 330.609375 15.394531 C 330.609375 15.574219 330.65625 15.71875 330.75 15.832031 C 330.84375 15.949219 330.976562 16.046875 331.15625 16.128906 C 331.34375 16.214844 331.734375 16.328125 332.328125 16.472656 C 332.890625 16.621094 333.289062 16.75 333.53125 16.863281 C 333.78125 16.980469 333.972656 17.109375 334.109375 17.253906 C 334.253906 17.402344 334.363281 17.574219 334.4375 17.769531 C 334.519531 17.957031 334.5625 18.171875 334.5625 18.410156 Z M 340.5625 18.410156 C 340.5625 19.003906 340.335938 19.46875 339.890625 19.800781 C 339.441406 20.125 338.8125 20.285156 338 20.285156 C 337.207031 20.285156 336.597656 20.15625 336.171875 19.894531 C 335.742188 19.636719 335.460938 19.230469 335.328125 18.675781 L 336.265625 18.488281 C 336.359375 18.832031 336.546875 19.082031 336.828125 19.238281 C 337.109375 19.394531 337.5 19.472656 338 19.472656 C 338.53125 19.472656 338.921875 19.394531 339.171875 19.238281 C 339.421875 19.074219 339.546875 18.824219 339.546875 18.488281 C 339.546875 18.238281 339.457031 18.035156 339.28125 17.878906 C 339.113281 17.722656 338.835938 17.59375 338.453125 17.488281 L 337.703125 17.300781 C 337.085938 17.144531 336.648438 16.996094 336.390625 16.847656 C 336.140625 16.691406 335.941406 16.503906 335.796875 16.285156 C 335.660156 16.066406 335.59375 15.800781 335.59375 15.488281 C 335.59375 14.917969 335.796875 14.480469 336.203125 14.175781 C 336.617188 13.875 337.21875 13.722656 338 13.722656 C 338.707031 13.722656 339.265625 13.847656 339.671875 14.097656 C 340.085938 14.339844 340.347656 14.730469 340.453125 15.269531 L 339.5 15.394531 C 339.445312 15.113281 339.289062 14.902344 339.03125 14.753906 C 338.78125 14.597656 338.4375 14.519531 338 14.519531 C 337.53125 14.519531 337.179688 14.59375 336.953125 14.738281 C 336.722656 14.886719 336.609375 15.105469 336.609375 15.394531 C 336.609375 15.574219 336.65625 15.71875 336.75 15.832031 C 336.84375 15.949219 336.976562 16.046875 337.15625 16.128906 C 337.34375 16.214844 337.734375 16.328125 338.328125 16.472656 C 338.890625 16.621094 339.289062 16.75 339.53125 16.863281 C 339.78125 16.980469 339.972656 17.109375 340.109375 17.253906 C 340.253906 17.402344 340.363281 17.574219 340.4375 17.769531 C 340.519531 17.957031 340.5625 18.171875 340.5625 18.410156 Z M 352.09375 15.941406 C 352.09375 16.796875 351.925781 17.546875 351.59375 18.191406 C 351.257812 18.828125 350.785156 19.316406 350.171875 19.660156 C 349.566406 19.996094 348.867188 20.160156 348.078125 20.160156 L 344.984375 20.160156 L 344.984375 11.910156 L 347.71875 11.910156 C 349.113281 11.910156 350.191406 12.261719 350.953125 12.957031 C 351.710938 13.65625 352.09375 14.652344 352.09375 15.941406 Z M 350.96875 15.941406 C 350.96875 14.921875 350.6875 14.144531 350.125 13.613281 C 349.5625 13.074219 348.75 12.800781 347.6875 12.800781 L 346.109375 12.800781 L 346.109375 19.269531 L 347.9375 19.269531 C 348.550781 19.269531 349.085938 19.140625 349.546875 18.878906 C 350.003906 18.609375 350.351562 18.222656 350.59375 17.722656 C 350.84375 17.222656 350.96875 16.628906 350.96875 15.941406 Z M 354.625 17.207031 C 354.625 17.9375 354.769531 18.5 355.0625 18.894531 C 355.363281 19.292969 355.804688 19.488281 356.390625 19.488281 C 356.847656 19.488281 357.210938 19.402344 357.484375 19.222656 C 357.765625 19.035156 357.953125 18.800781 358.046875 18.519531 L 358.96875 18.769531 C 358.59375 19.78125 357.734375 20.285156 356.390625 20.285156 C 355.453125 20.285156 354.738281 20.003906 354.25 19.441406 C 353.757812 18.878906 353.515625 18.046875 353.515625 16.941406 C 353.515625 15.902344 353.757812 15.105469 354.25 14.550781 C 354.738281 13.988281 355.4375 13.707031 356.34375 13.707031 C 358.207031 13.707031 359.140625 14.828125 359.140625 17.066406 L 359.140625 17.207031 Z M 358.046875 16.410156 C 357.992188 15.734375 357.828125 15.246094 357.546875 14.941406 C 357.265625 14.640625 356.859375 14.488281 356.328125 14.488281 C 355.816406 14.488281 355.410156 14.660156 355.109375 15.003906 C 354.816406 15.339844 354.65625 15.808594 354.625 16.410156 Z M 366.171875 16.957031 C 366.171875 19.175781 365.394531 20.285156 363.84375 20.285156 C 362.863281 20.285156 362.207031 19.917969 361.875 19.175781 L 361.84375 19.175781 C 361.851562 19.207031 361.859375 19.542969 361.859375 20.175781 L 361.859375 22.644531 L 360.8125 22.644531 L 360.8125 15.113281 C 360.8125 14.457031 360.800781 14.027344 360.78125 13.816406 L 361.796875 13.816406 C 361.796875 13.839844 361.800781 13.894531 361.8125 13.988281 C 361.820312 14.082031 361.832031 14.230469 361.84375 14.425781 C 361.851562 14.625 361.859375 14.761719 361.859375 14.832031 L 361.875 14.832031 C 362.0625 14.449219 362.304688 14.167969 362.609375 13.988281 C 362.921875 13.800781 363.332031 13.707031 363.84375 13.707031 C 364.625 13.707031 365.207031 13.972656 365.59375 14.503906 C 365.976562 15.027344 366.171875 15.84375 366.171875 16.957031 Z M 365.0625 16.988281 C 365.0625 16.105469 364.941406 15.472656 364.703125 15.097656 C 364.460938 14.714844 364.082031 14.519531 363.5625 14.519531 C 363.144531 14.519531 362.816406 14.609375 362.578125 14.785156 C 362.347656 14.964844 362.171875 15.238281 362.046875 15.613281 C 361.921875 15.988281 361.859375 16.472656 361.859375 17.066406 C 361.859375 17.902344 361.988281 18.515625 362.25 18.910156 C 362.519531 19.308594 362.957031 19.503906 363.5625 19.503906 C 364.082031 19.503906 364.460938 19.3125 364.703125 18.925781 C 364.941406 18.542969 365.0625 17.894531 365.0625 16.988281 Z M 367.8125 20.160156 L 367.8125 11.457031 L 368.859375 11.457031 L 368.859375 20.160156 Z M 376.171875 16.988281 C 376.171875 18.09375 375.925781 18.921875 375.4375 19.472656 C 374.945312 20.015625 374.238281 20.285156 373.3125 20.285156 C 372.382812 20.285156 371.679688 20.003906 371.203125 19.441406 C 370.734375 18.871094 370.5 18.050781 370.5 16.988281 C 370.5 14.800781 371.445312 13.707031 373.34375 13.707031 C 374.3125 13.707031 375.023438 13.972656 375.484375 14.503906 C 375.941406 15.035156 376.171875 15.863281 376.171875 16.988281 Z M 375.0625 16.988281 C 375.0625 16.113281 374.929688 15.480469 374.671875 15.082031 C 374.410156 14.6875 373.972656 14.488281 373.359375 14.488281 C 372.742188 14.488281 372.296875 14.691406 372.015625 15.097656 C 371.742188 15.496094 371.609375 16.125 371.609375 16.988281 C 371.609375 17.824219 371.742188 18.453125 372.015625 18.878906 C 372.285156 19.296875 372.710938 19.503906 373.296875 19.503906 C 373.929688 19.503906 374.382812 19.300781 374.65625 18.894531 C 374.925781 18.488281 375.0625 17.855469 375.0625 16.988281 Z M 378.125 22.644531 C 377.832031 22.644531 377.585938 22.621094 377.390625 22.582031 L 377.390625 21.800781 C 377.535156 21.820312 377.703125 21.832031 377.890625 21.832031 C 378.546875 21.832031 379.0625 21.347656 379.4375 20.378906 L 379.546875 20.128906 L 377.03125 13.816406 L 378.15625 13.816406 L 379.484375 17.316406 C 379.503906 17.378906 379.53125 17.449219 379.5625 17.519531 C 379.59375 17.59375 379.679688 17.847656 379.828125 18.285156 C 379.972656 18.722656 380.050781 18.964844 380.0625 19.003906 L 380.46875 17.863281 L 381.859375 13.816406 L 382.984375 13.816406 L 380.546875 20.160156 C 380.273438 20.835938 380.023438 21.335938 379.796875 21.660156 C 379.578125 21.992188 379.328125 22.238281 379.046875 22.394531 C 378.773438 22.558594 378.46875 22.644531 378.125 22.644531 Z M 388.5625 18.410156 C 388.5625 19.003906 388.335938 19.46875 387.890625 19.800781 C 387.441406 20.125 386.8125 20.285156 386 20.285156 C 385.207031 20.285156 384.597656 20.15625 384.171875 19.894531 C 383.742188 19.636719 383.460938 19.230469 383.328125 18.675781 L 384.265625 18.488281 C 384.359375 18.832031 384.546875 19.082031 384.828125 19.238281 C 385.109375 19.394531 385.5 19.472656 386 19.472656 C 386.53125 19.472656 386.921875 19.394531 387.171875 19.238281 C 387.421875 19.074219 387.546875 18.824219 387.546875 18.488281 C 387.546875 18.238281 387.457031 18.035156 387.28125 17.878906 C 387.113281 17.722656 386.835938 17.59375 386.453125 17.488281 L 385.703125 17.300781 C 385.085938 17.144531 384.648438 16.996094 384.390625 16.847656 C 384.140625 16.691406 383.941406 16.503906 383.796875 16.285156 C 383.660156 16.066406 383.59375 15.800781 383.59375 15.488281 C 383.59375 14.917969 383.796875 14.480469 384.203125 14.175781 C 384.617188 13.875 385.21875 13.722656 386 13.722656 C 386.707031 13.722656 387.265625 13.847656 387.671875 14.097656 C 388.085938 14.339844 388.347656 14.730469 388.453125 15.269531 L 387.5 15.394531 C 387.445312 15.113281 387.289062 14.902344 387.03125 14.753906 C 386.78125 14.597656 386.4375 14.519531 386 14.519531 C 385.53125 14.519531 385.179688 14.59375 384.953125 14.738281 C 384.722656 14.886719 384.609375 15.105469 384.609375 15.394531 C 384.609375 15.574219 384.65625 15.71875 384.75 15.832031 C 384.84375 15.949219 384.976562 16.046875 385.15625 16.128906 C 385.34375 16.214844 385.734375 16.328125 386.328125 16.472656 C 386.890625 16.621094 387.289062 16.75 387.53125 16.863281 C 387.78125 16.980469 387.972656 17.109375 388.109375 17.253906 C 388.253906 17.402344 388.363281 17.574219 388.4375 17.769531 C 388.519531 17.957031 388.5625 18.171875 388.5625 18.410156 Z M 295 9.296875 "/>
<path style="fill:none;stroke-width:1;stroke-linecap:butt;stroke-linejoin:miter;stroke:rgb(0%,0%,0%);stroke-opacity:0.247059;stroke-miterlimit:10;" d="M 32.5 270 L 32.5 279.839844 M 32.5 32 L 32.5 269 "/>
<path style="fill:none;stroke-width:1;stroke-linecap:butt;stroke-linejoin:miter;stroke:rgb(0%,0%,0%);stroke-opacity:0.0980392;stroke-miterlimit:10;" d="M 125.5 270 L 125.5 279.839844 M 125.5 32 L 125.5 269 "/>
<path style="fill:none;stroke-width:1;stroke-linecap:butt;stroke-linejoin:miter;stroke:rgb(0%,0%,0%);stroke-opacity:0.0980392;stroke-miterlimit:10;" d="M 218.5 270 L 218.5 279.839844 M 218.5 32 L 218.5 269 "/>
<path style="fill:none;stroke-width:1;stroke-linecap:butt;stroke-linejoin:miter;stroke:rgb(0%,0%,0%);stroke-opacity:0.0980392;stroke-miterlimit:10;" d="M 311.5 270 L 311.5 279.839844 M 311.5 32 L 311.5 269 "/>
<path style="fill:none;stroke-width:1;stroke-linecap:butt;stroke-linejoin:miter;stroke:rgb(0%,0%,0%);stroke-opacity:0.0980392;stroke-miterlimit:10;" d="M 404.5 270 L 404.5 279.839844 M 404.5 32 L 404.5 269 "/>
<path style="fill:none;stroke-width:1;stroke-linecap:butt;stroke-linejoin:miter;stroke:rgb(0%,0%,0%);stroke-opacity:0.0980392;stroke-miterlimit:10;" d="M 497.5 270 L 497.5 279.839844 M 497.5 32 L 497.5 269 "/>
<path style="fill:none;stroke-width:1;stroke-linecap:butt;stroke-linejoin:miter;stroke:rgb(0%,0%,0%);stroke-opacity:0.0980392;stroke-miterlimit:10;" d="M 32 269.5 L 498 269.5 "/>
<path style=" stroke:none;fill-rule:nonzero;fill:rgb(40%,40%,40%);fill-opacity:1;" d="M 47.792969 291.199219 L 47.792969 290.449219 C 47.988281 289.992188 48.230469 289.589844 48.511719 289.246094 C 48.800781 288.894531 49.105469 288.574219 49.417969 288.292969 C 49.738281 288.011719 50.050781 287.753906 50.355469 287.511719 C 50.667969 287.261719 50.949219 287.019531 51.199219 286.777344 C 51.449219 286.539062 51.652344 286.289062 51.808594 286.027344 C 51.964844 285.757812 52.042969 285.457031 52.042969 285.121094 C 52.042969 284.664062 51.90625 284.308594 51.636719 284.058594 C 51.375 283.808594 51.011719 283.683594 50.542969 283.683594 C 50.082031 283.683594 49.707031 283.808594 49.417969 284.058594 C 49.136719 284.300781 48.96875 284.636719 48.917969 285.074219 L 47.839844 284.980469 C 47.910156 284.324219 48.1875 283.804688 48.667969 283.417969 C 49.15625 283.023438 49.78125 282.824219 50.542969 282.824219 C 51.363281 282.824219 52 283.023438 52.449219 283.417969 C 52.894531 283.804688 53.121094 284.355469 53.121094 285.074219 C 53.121094 285.398438 53.046875 285.722656 52.902344 286.042969 C 52.753906 286.355469 52.535156 286.675781 52.246094 286.996094 C 51.964844 287.308594 51.410156 287.792969 50.589844 288.449219 C 50.140625 288.824219 49.78125 289.160156 49.511719 289.449219 C 49.25 289.742188 49.0625 290.027344 48.949219 290.308594 L 53.261719 290.308594 L 53.261719 291.199219 Z M 60.386719 287.074219 C 60.386719 288.449219 60.140625 289.503906 59.652344 290.230469 C 59.171875 290.960938 58.457031 291.324219 57.511719 291.324219 C 56.5625 291.324219 55.847656 290.964844 55.371094 290.246094 C 54.890625 289.519531 54.652344 288.460938 54.652344 287.074219 C 54.652344 285.648438 54.878906 284.585938 55.339844 283.886719 C 55.808594 283.179688 56.542969 282.824219 57.542969 282.824219 C 58.511719 282.824219 59.222656 283.183594 59.683594 283.902344 C 60.152344 284.613281 60.386719 285.667969 60.386719 287.074219 Z M 59.324219 287.074219 C 59.324219 285.878906 59.183594 285.011719 58.902344 284.480469 C 58.628906 283.941406 58.175781 283.667969 57.542969 283.667969 C 56.894531 283.667969 56.425781 283.933594 56.136719 284.464844 C 55.855469 284.996094 55.714844 285.867188 55.714844 287.074219 C 55.714844 288.242188 55.855469 289.097656 56.136719 289.636719 C 56.425781 290.179688 56.886719 290.449219 57.511719 290.449219 C 58.136719 290.449219 58.59375 290.175781 58.886719 289.621094 C 59.175781 289.070312 59.324219 288.222656 59.324219 287.074219 Z M 61.792969 291.199219 L 61.792969 290.449219 C 61.988281 289.992188 62.230469 289.589844 62.511719 289.246094 C 62.800781 288.894531 63.105469 288.574219 63.417969 288.292969 C 63.738281 288.011719 64.050781 287.753906 64.355469 287.511719 C 64.667969 287.261719 64.949219 287.019531 65.199219 286.777344 C 65.449219 286.539062 65.652344 286.289062 65.808594 286.027344 C 65.964844 285.757812 66.042969 285.457031 66.042969 285.121094 C 66.042969 284.664062 65.90625 284.308594 65.636719 284.058594 C 65.375 283.808594 65.011719 283.683594 64.542969 283.683594 C 64.082031 283.683594 63.707031 283.808594 63.417969 284.058594 C 63.136719 284.300781 62.96875 284.636719 62.917969 285.074219 L 61.839844 284.980469 C 61.910156 284.324219 62.1875 283.804688 62.667969 283.417969 C 63.15625 283.023438 63.78125 282.824219 64.542969 282.824219 C 65.363281 282.824219 66 283.023438 66.449219 283.417969 C 66.894531 283.804688 67.121094 284.355469 67.121094 285.074219 C 67.121094 285.398438 67.046875 285.722656 66.902344 286.042969 C 66.753906 286.355469 66.535156 286.675781 66.246094 286.996094 C 65.964844 287.308594 65.410156 287.792969 64.589844 288.449219 C 64.140625 288.824219 63.78125 289.160156 63.511719 289.449219 C 63.25 289.742188 63.0625 290.027344 62.949219 290.308594 L 67.261719 290.308594 L 67.261719 291.199219 Z M 68.792969 291.199219 L 68.792969 290.449219 C 68.988281 289.992188 69.230469 289.589844 69.511719 289.246094 C 69.800781 288.894531 70.105469 288.574219 70.417969 288.292969 C 70.738281 288.011719 71.050781 287.753906 71.355469 287.511719 C 71.667969 287.261719 71.949219 287.019531 72.199219 286.777344 C 72.449219 286.539062 72.652344 286.289062 72.808594 286.027344 C 72.964844 285.757812 73.042969 285.457031 73.042969 285.121094 C 73.042969 284.664062 72.90625 284.308594 72.636719 284.058594 C 72.375 283.808594 72.011719 283.683594 71.542969 283.683594 C 71.082031 283.683594 70.707031 283.808594 70.417969 284.058594 C 70.136719 284.300781 69.96875 284.636719 69.917969 285.074219 L 68.839844 284.980469 C 68.910156 284.324219 69.1875 283.804688 69.667969 283.417969 C 70.15625 283.023438 70.78125 282.824219 71.542969 282.824219 C 72.363281 282.824219 73 283.023438 73.449219 283.417969 C 73.894531 283.804688 74.121094 284.355469 74.121094 285.074219 C 74.121094 285.398438 74.046875 285.722656 73.902344 286.042969 C 73.753906 286.355469 73.535156 286.675781 73.246094 286.996094 C 72.964844 287.308594 72.410156 287.792969 71.589844 288.449219 C 71.140625 288.824219 70.78125 289.160156 70.511719 289.449219 C 70.25 289.742188 70.0625 290.027344 69.949219 290.308594 L 74.261719 290.308594 L 74.261719 291.199219 Z M 75.714844 288.480469 L 75.714844 287.542969 L 78.652344 287.542969 L 78.652344 288.480469 Z M 80.105469 291.199219 L 80.105469 290.308594 L 82.199219 290.308594 L 82.199219 283.949219 L 80.339844 285.277344 L 80.339844 284.277344 L 82.292969 282.949219 L 83.261719 282.949219 L 83.261719 290.308594 L 85.277344 290.308594 L 85.277344 291.199219 Z M 92.386719 287.074219 C 92.386719 288.449219 92.140625 289.503906 91.652344 290.230469 C 91.171875 290.960938 90.457031 291.324219 89.511719 291.324219 C 88.5625 291.324219 87.847656 290.964844 87.371094 290.246094 C 86.890625 289.519531 86.652344 288.460938 86.652344 287.074219 C 86.652344 285.648438 86.878906 284.585938 87.339844 283.886719 C 87.808594 283.179688 88.542969 282.824219 89.542969 282.824219 C 90.511719 282.824219 91.222656 283.183594 91.683594 283.902344 C 92.152344 284.613281 92.386719 285.667969 92.386719 287.074219 Z M 91.324219 287.074219 C 91.324219 285.878906 91.183594 285.011719 90.902344 284.480469 C 90.628906 283.941406 90.175781 283.667969 89.542969 283.667969 C 88.894531 283.667969 88.425781 283.933594 88.136719 284.464844 C 87.855469 284.996094 87.714844 285.867188 87.714844 287.074219 C 87.714844 288.242188 87.855469 289.097656 88.136719 289.636719 C 88.425781 290.179688 88.886719 290.449219 89.511719 290.449219 C 90.136719 290.449219 90.59375 290.175781 90.886719 289.621094 C 91.175781 289.070312 91.324219 288.222656 91.324219 287.074219 Z M 93.714844 288.480469 L 93.714844 287.542969 L 96.652344 287.542969 L 96.652344 288.480469 Z M 98.105469 291.199219 L 98.105469 290.308594 L 100.199219 290.308594 L 100.199219 283.949219 L 98.339844 285.277344 L 98.339844 284.277344 L 100.292969 282.949219 L 101.261719 282.949219 L 101.261719 290.308594 L 103.277344 290.308594 L 103.277344 291.199219 Z M 110.339844 288.902344 C 110.339844 289.664062 110.09375 290.257812 109.605469 290.683594 C 109.125 291.113281 108.433594 291.324219 107.527344 291.324219 C 106.640625 291.324219 105.949219 291.117188 105.449219 290.699219 C 104.949219 290.273438 104.699219 289.675781 104.699219 288.902344 C 104.699219 288.371094 104.855469 287.925781 105.167969 287.558594 C 105.480469 287.183594 105.875 286.960938 106.355469 286.886719 L 106.355469 286.855469 C 105.90625 286.753906 105.550781 286.523438 105.292969 286.167969 C 105.03125 285.816406 104.902344 285.402344 104.902344 284.933594 C 104.902344 284.308594 105.136719 283.804688 105.605469 283.417969 C 106.074219 283.023438 106.703125 282.824219 107.496094 282.824219 C 108.308594 282.824219 108.949219 283.019531 109.417969 283.402344 C 109.894531 283.777344 110.136719 284.292969 110.136719 284.949219 C 110.136719 285.417969 110 285.832031 109.730469 286.183594 C 109.46875 286.539062 109.113281 286.757812 108.667969 286.839844 L 108.667969 286.871094 C 109.199219 286.957031 109.609375 287.179688 109.902344 287.542969 C 110.191406 287.898438 110.339844 288.351562 110.339844 288.902344 Z M 109.246094 288.792969 C 109.246094 288.285156 109.089844 287.898438 108.777344 287.636719 C 108.472656 287.378906 108.046875 287.246094 107.496094 287.246094 C 106.964844 287.246094 106.546875 287.386719 106.246094 287.667969 C 105.941406 287.949219 105.792969 288.335938 105.792969 288.824219 C 105.792969 289.960938 106.375 290.527344 107.542969 290.527344 C 108.113281 290.527344 108.542969 290.394531 108.824219 290.121094 C 109.105469 289.839844 109.246094 289.398438 109.246094 288.792969 Z M 109.042969 285.011719 C 109.042969 284.074219 108.527344 283.605469 107.496094 283.605469 C 107.003906 283.605469 106.628906 283.726562 106.371094 283.964844 C 106.109375 284.195312 105.980469 284.542969 105.980469 285.011719 C 105.980469 285.480469 106.109375 285.839844 106.371094 286.089844 C 106.640625 286.339844 107.019531 286.464844 107.511719 286.464844 C 108.011719 286.464844 108.390625 286.351562 108.652344 286.121094 C 108.910156 285.894531 109.042969 285.523438 109.042969 285.011719 Z M 47.183594 280.335938 "/>
<path style=" stroke:none;fill-rule:nonzero;fill:rgb(40%,40%,40%);fill-opacity:1;" d="M 140.640625 291.199219 L 140.640625 290.449219 C 140.835938 289.992188 141.078125 289.589844 141.359375 289.246094 C 141.648438 288.894531 141.953125 288.574219 142.265625 288.292969 C 142.585938 288.011719 142.898438 287.753906 143.203125 287.511719 C 143.515625 287.261719 143.796875 287.019531 144.046875 286.777344 C 144.296875 286.539062 144.5 286.289062 144.65625 286.027344 C 144.8125 285.757812 144.890625 285.457031 144.890625 285.121094 C 144.890625 284.664062 144.753906 284.308594 144.484375 284.058594 C 144.222656 283.808594 143.859375 283.683594 143.390625 283.683594 C 142.929688 283.683594 142.554688 283.808594 142.265625 284.058594 C 141.984375 284.300781 141.816406 284.636719 141.765625 285.074219 L 140.6875 284.980469 C 140.757812 284.324219 141.035156 283.804688 141.515625 283.417969 C 142.003906 283.023438 142.628906 282.824219 143.390625 282.824219 C 144.210938 282.824219 144.847656 283.023438 145.296875 283.417969 C 145.742188 283.804688 145.96875 284.355469 145.96875 285.074219 C 145.96875 285.398438 145.894531 285.722656 145.75 286.042969 C 145.601562 286.355469 145.382812 286.675781 145.09375 286.996094 C 144.8125 287.308594 144.257812 287.792969 143.4375 288.449219 C 142.988281 288.824219 142.628906 289.160156 142.359375 289.449219 C 142.097656 289.742188 141.910156 290.027344 141.796875 290.308594 L 146.109375 290.308594 L 146.109375 291.199219 Z M 153.234375 287.074219 C 153.234375 288.449219 152.988281 289.503906 152.5 290.230469 C 152.019531 290.960938 151.304688 291.324219 150.359375 291.324219 C 149.410156 291.324219 148.695312 290.964844 148.21875 290.246094 C 147.738281 289.519531 147.5 288.460938 147.5 287.074219 C 147.5 285.648438 147.726562 284.585938 148.1875 283.886719 C 148.65625 283.179688 149.390625 282.824219 150.390625 282.824219 C 151.359375 282.824219 152.070312 283.183594 152.53125 283.902344 C 153 284.613281 153.234375 285.667969 153.234375 287.074219 Z M 152.171875 287.074219 C 152.171875 285.878906 152.03125 285.011719 151.75 284.480469 C 151.476562 283.941406 151.023438 283.667969 150.390625 283.667969 C 149.742188 283.667969 149.273438 283.933594 148.984375 284.464844 C 148.703125 284.996094 148.5625 285.867188 148.5625 287.074219 C 148.5625 288.242188 148.703125 289.097656 148.984375 289.636719 C 149.273438 290.179688 149.734375 290.449219 150.359375 290.449219 C 150.984375 290.449219 151.441406 290.175781 151.734375 289.621094 C 152.023438 289.070312 152.171875 288.222656 152.171875 287.074219 Z M 154.640625 291.199219 L 154.640625 290.449219 C 154.835938 289.992188 155.078125 289.589844 155.359375 289.246094 C 155.648438 288.894531 155.953125 288.574219 156.265625 288.292969 C 156.585938 288.011719 156.898438 287.753906 157.203125 287.511719 C 157.515625 287.261719 157.796875 287.019531 158.046875 286.777344 C 158.296875 286.539062 158.5 286.289062 158.65625 286.027344 C 158.8125 285.757812 158.890625 285.457031 158.890625 285.121094 C 158.890625 284.664062 158.753906 284.308594 158.484375 284.058594 C 158.222656 283.808594 157.859375 283.683594 157.390625 283.683594 C 156.929688 283.683594 156.554688 283.808594 156.265625 284.058594 C 155.984375 284.300781 155.816406 284.636719 155.765625 285.074219 L 154.6875 284.980469 C 154.757812 284.324219 155.035156 283.804688 155.515625 283.417969 C 156.003906 283.023438 156.628906 282.824219 157.390625 282.824219 C 158.210938 282.824219 158.847656 283.023438 159.296875 283.417969 C 159.742188 283.804688 159.96875 284.355469 159.96875 285.074219 C 159.96875 285.398438 159.894531 285.722656 159.75 286.042969 C 159.601562 286.355469 159.382812 286.675781 159.09375 286.996094 C 158.8125 287.308594 158.257812 287.792969 157.4375 288.449219 C 156.988281 288.824219 156.628906 289.160156 156.359375 289.449219 C 156.097656 289.742188 155.910156 290.027344 155.796875 290.308594 L 160.109375 290.308594 L 160.109375 291.199219 Z M 161.640625 291.199219 L 161.640625 290.449219 C 161.835938 289.992188 162.078125 289.589844 162.359375 289.246094 C 162.648438 288.894531 162.953125 288.574219 163.265625 288.292969 C 163.585938 288.011719 163.898438 287.753906 164.203125 287.511719 C 164.515625 287.261719 164.796875 287.019531 165.046875 286.777344 C 165.296875 286.539062 165.5 286.289062 165.65625 286.027344 C 165.8125 285.757812 165.890625 285.457031 165.890625 285.121094 C 165.890625 284.664062 165.753906 284.308594 165.484375 284.058594 C 165.222656 283.808594 164.859375 283.683594 164.390625 283.683594 C 163.929688 283.683594 163.554688 283.808594 163.265625 284.058594 C 162.984375 284.300781 162.816406 284.636719 162.765625 285.074219 L 161.6875 284.980469 C 161.757812 284.324219 162.035156 283.804688 162.515625 283.417969 C 163.003906 283.023438 163.628906 282.824219 164.390625 282.824219 C 165.210938 282.824219 165.847656 283.023438 166.296875 283.417969 C 166.742188 283.804688 166.96875 284.355469 166.96875 285.074219 C 166.96875 285.398438 166.894531 285.722656 166.75 286.042969 C 166.601562 286.355469 166.382812 286.675781 166.09375 286.996094 C 165.8125 287.308594 165.257812 287.792969 164.4375 288.449219 C 163.988281 288.824219 163.628906 289.160156 163.359375 289.449219 C 163.097656 289.742188 162.910156 290.027344 162.796875 290.308594 L 167.109375 290.308594 L 167.109375 291.199219 Z M 168.5625 288.480469 L 168.5625 287.542969 L 171.5 287.542969 L 171.5 288.480469 Z M 172.953125 291.199219 L 172.953125 290.308594 L 175.046875 290.308594 L 175.046875 283.949219 L 173.1875 285.277344 L 173.1875 284.277344 L 175.140625 282.949219 L 176.109375 282.949219 L 176.109375 290.308594 L 178.125 290.308594 L 178.125 291.199219 Z M 185.234375 287.074219 C 185.234375 288.449219 184.988281 289.503906 184.5 290.230469 C 184.019531 290.960938 183.304688 291.324219 182.359375 291.324219 C 181.410156 291.324219 180.695312 290.964844 180.21875 290.246094 C 179.738281 289.519531 179.5 288.460938 179.5 287.074219 C 179.5 285.648438 179.726562 284.585938 180.1875 283.886719 C 180.65625 283.179688 181.390625 282.824219 182.390625 282.824219 C 183.359375 282.824219 184.070312 283.183594 184.53125 283.902344 C 185 284.613281 185.234375 285.667969 185.234375 287.074219 Z M 184.171875 287.074219 C 184.171875 285.878906 184.03125 285.011719 183.75 284.480469 C 183.476562 283.941406 183.023438 283.667969 182.390625 283.667969 C 181.742188 283.667969 181.273438 283.933594 180.984375 284.464844 C 180.703125 284.996094 180.5625 285.867188 180.5625 287.074219 C 180.5625 288.242188 180.703125 289.097656 180.984375 289.636719 C 181.273438 290.179688 181.734375 290.449219 182.359375 290.449219 C 182.984375 290.449219 183.441406 290.175781 183.734375 289.621094 C 184.023438 289.070312 184.171875 288.222656 184.171875 287.074219 Z M 186.5625 288.480469 L 186.5625 287.542969 L 189.5 287.542969 L 189.5 288.480469 Z M 190.953125 291.199219 L 190.953125 290.308594 L 193.046875 290.308594 L 193.046875 283.949219 L 191.1875 285.277344 L 191.1875 284.277344 L 193.140625 282.949219 L 194.109375 282.949219 L 194.109375 290.308594 L 196.125 290.308594 L 196.125 291.199219 Z M 203.140625 286.902344 C 203.140625 288.320312 202.878906 289.414062 202.359375 290.183594 C 201.835938 290.945312 201.101562 291.324219 200.15625 291.324219 C 199.507812 291.324219 198.988281 291.191406 198.59375 290.917969 C 198.207031 290.636719 197.929688 290.195312 197.765625 289.589844 L 198.765625 289.433594 C 198.984375 290.121094 199.453125 290.464844 200.171875 290.464844 C 200.773438 290.464844 201.242188 290.183594 201.578125 289.621094 C 201.910156 289.058594 202.082031 288.257812 202.09375 287.214844 C 201.9375 287.570312 201.664062 287.855469 201.28125 288.074219 C 200.90625 288.285156 200.492188 288.386719 200.046875 288.386719 C 199.304688 288.386719 198.710938 288.132812 198.265625 287.621094 C 197.816406 287.113281 197.59375 286.433594 197.59375 285.589844 C 197.59375 284.738281 197.832031 284.066406 198.3125 283.574219 C 198.800781 283.074219 199.476562 282.824219 200.34375 282.824219 C 201.257812 282.824219 201.953125 283.164062 202.421875 283.839844 C 202.898438 284.519531 203.140625 285.539062 203.140625 286.902344 Z M 201.984375 285.886719 C 201.984375 285.222656 201.832031 284.683594 201.53125 284.277344 C 201.226562 283.871094 200.820312 283.667969 200.3125 283.667969 C 199.800781 283.667969 199.398438 283.847656 199.109375 284.199219 C 198.816406 284.542969 198.671875 285.007812 198.671875 285.589844 C 198.671875 286.195312 198.816406 286.675781 199.109375 287.027344 C 199.398438 287.371094 199.796875 287.542969 200.296875 287.542969 C 200.597656 287.542969 200.878906 287.476562 201.140625 287.339844 C 201.398438 287.207031 201.601562 287.011719 201.75 286.761719 C 201.90625 286.503906 201.984375 286.210938 201.984375 285.886719 Z M 140.03125 280.335938 "/>
<path style=" stroke:none;fill-rule:nonzero;fill:rgb(40%,40%,40%);fill-opacity:1;" d="M 233.488281 291.199219 L 233.488281 290.449219 C 233.683594 289.992188 233.925781 289.589844 234.207031 289.246094 C 234.496094 288.894531 234.800781 288.574219 235.113281 288.292969 C 235.433594 288.011719 235.746094 287.753906 236.050781 287.511719 C 236.363281 287.261719 236.644531 287.019531 236.894531 286.777344 C 237.144531 286.539062 237.347656 286.289062 237.503906 286.027344 C 237.660156 285.757812 237.738281 285.457031 237.738281 285.121094 C 237.738281 284.664062 237.601562 284.308594 237.332031 284.058594 C 237.070312 283.808594 236.707031 283.683594 236.238281 283.683594 C 235.777344 283.683594 235.402344 283.808594 235.113281 284.058594 C 234.832031 284.300781 234.664062 284.636719 234.613281 285.074219 L 233.535156 284.980469 C 233.605469 284.324219 233.882812 283.804688 234.363281 283.417969 C 234.851562 283.023438 235.476562 282.824219 236.238281 282.824219 C 237.058594 282.824219 237.695312 283.023438 238.144531 283.417969 C 238.589844 283.804688 238.816406 284.355469 238.816406 285.074219 C 238.816406 285.398438 238.742188 285.722656 238.597656 286.042969 C 238.449219 286.355469 238.230469 286.675781 237.941406 286.996094 C 237.660156 287.308594 237.105469 287.792969 236.285156 288.449219 C 235.835938 288.824219 235.476562 289.160156 235.207031 289.449219 C 234.945312 289.742188 234.757812 290.027344 234.644531 290.308594 L 238.957031 290.308594 L 238.957031 291.199219 Z M 246.082031 287.074219 C 246.082031 288.449219 245.835938 289.503906 245.347656 290.230469 C 244.867188 290.960938 244.152344 291.324219 243.207031 291.324219 C 242.257812 291.324219 241.542969 290.964844 241.066406 290.246094 C 240.585938 289.519531 240.347656 288.460938 240.347656 287.074219 C 240.347656 285.648438 240.574219 284.585938 241.035156 283.886719 C 241.503906 283.179688 242.238281 282.824219 243.238281 282.824219 C 244.207031 282.824219 244.917969 283.183594 245.378906 283.902344 C 245.847656 284.613281 246.082031 285.667969 246.082031 287.074219 Z M 245.019531 287.074219 C 245.019531 285.878906 244.878906 285.011719 244.597656 284.480469 C 244.324219 283.941406 243.871094 283.667969 243.238281 283.667969 C 242.589844 283.667969 242.121094 283.933594 241.832031 284.464844 C 241.550781 284.996094 241.410156 285.867188 241.410156 287.074219 C 241.410156 288.242188 241.550781 289.097656 241.832031 289.636719 C 242.121094 290.179688 242.582031 290.449219 243.207031 290.449219 C 243.832031 290.449219 244.289062 290.175781 244.582031 289.621094 C 244.871094 289.070312 245.019531 288.222656 245.019531 287.074219 Z M 247.488281 291.199219 L 247.488281 290.449219 C 247.683594 289.992188 247.925781 289.589844 248.207031 289.246094 C 248.496094 288.894531 248.800781 288.574219 249.113281 288.292969 C 249.433594 288.011719 249.746094 287.753906 250.050781 287.511719 C 250.363281 287.261719 250.644531 287.019531 250.894531 286.777344 C 251.144531 286.539062 251.347656 286.289062 251.503906 286.027344 C 251.660156 285.757812 251.738281 285.457031 251.738281 285.121094 C 251.738281 284.664062 251.601562 284.308594 251.332031 284.058594 C 251.070312 283.808594 250.707031 283.683594 250.238281 283.683594 C 249.777344 283.683594 249.402344 283.808594 249.113281 284.058594 C 248.832031 284.300781 248.664062 284.636719 248.613281 285.074219 L 247.535156 284.980469 C 247.605469 284.324219 247.882812 283.804688 248.363281 283.417969 C 248.851562 283.023438 249.476562 282.824219 250.238281 282.824219 C 251.058594 282.824219 251.695312 283.023438 252.144531 283.417969 C 252.589844 283.804688 252.816406 284.355469 252.816406 285.074219 C 252.816406 285.398438 252.742188 285.722656 252.597656 286.042969 C 252.449219 286.355469 252.230469 286.675781 251.941406 286.996094 C 251.660156 287.308594 251.105469 287.792969 250.285156 288.449219 C 249.835938 288.824219 249.476562 289.160156 249.207031 289.449219 C 248.945312 289.742188 248.757812 290.027344 248.644531 290.308594 L 252.957031 290.308594 L 252.957031 291.199219 Z M 254.488281 291.199219 L 254.488281 290.449219 C 254.683594 289.992188 254.925781 289.589844 255.207031 289.246094 C 255.496094 288.894531 255.800781 288.574219 256.113281 288.292969 C 256.433594 288.011719 256.746094 287.753906 257.050781 287.511719 C 257.363281 287.261719 257.644531 287.019531 257.894531 286.777344 C 258.144531 286.539062 258.347656 286.289062 258.503906 286.027344 C 258.660156 285.757812 258.738281 285.457031 258.738281 285.121094 C 258.738281 284.664062 258.601562 284.308594 258.332031 284.058594 C 258.070312 283.808594 257.707031 283.683594 257.238281 283.683594 C 256.777344 283.683594 256.402344 283.808594 256.113281 284.058594 C 255.832031 284.300781 255.664062 284.636719 255.613281 285.074219 L 254.535156 284.980469 C 254.605469 284.324219 254.882812 283.804688 255.363281 283.417969 C 255.851562 283.023438 256.476562 282.824219 257.238281 282.824219 C 258.058594 282.824219 258.695312 283.023438 259.144531 283.417969 C 259.589844 283.804688 259.816406 284.355469 259.816406 285.074219 C 259.816406 285.398438 259.742188 285.722656 259.597656 286.042969 C 259.449219 286.355469 259.230469 286.675781 258.941406 286.996094 C 258.660156 287.308594 258.105469 287.792969 257.285156 288.449219 C 256.835938 288.824219 256.476562 289.160156 256.207031 289.449219 C 255.945312 289.742188 255.757812 290.027344 255.644531 290.308594 L 259.957031 290.308594 L 259.957031 291.199219 Z M 261.410156 288.480469 L 261.410156 287.542969 L 264.347656 287.542969 L 264.347656 288.480469 Z M 265.800781 291.199219 L 265.800781 290.308594 L 267.894531 290.308594 L 267.894531 283.949219 L 266.035156 285.277344 L 266.035156 284.277344 L 267.988281 282.949219 L 268.957031 282.949219 L 268.957031 290.308594 L 270.972656 290.308594 L 270.972656 291.199219 Z M 278.082031 287.074219 C 278.082031 288.449219 277.835938 289.503906 277.347656 290.230469 C 276.867188 290.960938 276.152344 291.324219 275.207031 291.324219 C 274.257812 291.324219 273.542969 290.964844 273.066406 290.246094 C 272.585938 289.519531 272.347656 288.460938 272.347656 287.074219 C 272.347656 285.648438 272.574219 284.585938 273.035156 283.886719 C 273.503906 283.179688 274.238281 282.824219 275.238281 282.824219 C 276.207031 282.824219 276.917969 283.183594 277.378906 283.902344 C 277.847656 284.613281 278.082031 285.667969 278.082031 287.074219 Z M 277.019531 287.074219 C 277.019531 285.878906 276.878906 285.011719 276.597656 284.480469 C 276.324219 283.941406 275.871094 283.667969 275.238281 283.667969 C 274.589844 283.667969 274.121094 283.933594 273.832031 284.464844 C 273.550781 284.996094 273.410156 285.867188 273.410156 287.074219 C 273.410156 288.242188 273.550781 289.097656 273.832031 289.636719 C 274.121094 290.179688 274.582031 290.449219 275.207031 290.449219 C 275.832031 290.449219 276.289062 290.175781 276.582031 289.621094 C 276.871094 289.070312 277.019531 288.222656 277.019531 287.074219 Z M 279.410156 288.480469 L 279.410156 287.542969 L 282.347656 287.542969 L 282.347656 288.480469 Z M 283.488281 291.199219 L 283.488281 290.449219 C 283.683594 289.992188 283.925781 289.589844 284.207031 289.246094 C 284.496094 288.894531 284.800781 288.574219 285.113281 288.292969 C 285.433594 288.011719 285.746094 287.753906 286.050781 287.511719 C 286.363281 287.261719 286.644531 287.019531 286.894531 286.777344 C 287.144531 286.539062 287.347656 286.289062 287.503906 286.027344 C 287.660156 285.757812 287.738281 285.457031 287.738281 285.121094 C 287.738281 284.664062 287.601562 284.308594 287.332031 284.058594 C 287.070312 283.808594 286.707031 283.683594 286.238281 283.683594 C 285.777344 283.683594 285.402344 283.808594 285.113281 284.058594 C 284.832031 284.300781 284.664062 284.636719 284.613281 285.074219 L 283.535156 284.980469 C 283.605469 284.324219 283.882812 283.804688 284.363281 283.417969 C 284.851562 283.023438 285.476562 282.824219 286.238281 282.824219 C 287.058594 282.824219 287.695312 283.023438 288.144531 283.417969 C 288.589844 283.804688 288.816406 284.355469 288.816406 285.074219 C 288.816406 285.398438 288.742188 285.722656 288.597656 286.042969 C 288.449219 286.355469 288.230469 286.675781 287.941406 286.996094 C 287.660156 287.308594 287.105469 287.792969 286.285156 288.449219 C 285.835938 288.824219 285.476562 289.160156 285.207031 289.449219 C 284.945312 289.742188 284.757812 290.027344 284.644531 290.308594 L 288.957031 290.308594 L 288.957031 291.199219 Z M 296.082031 287.074219 C 296.082031 288.449219 295.835938 289.503906 295.347656 290.230469 C 294.867188 290.960938 294.152344 291.324219 293.207031 291.324219 C 292.257812 291.324219 291.542969 290.964844 291.066406 290.246094 C 290.585938 289.519531 290.347656 288.460938 290.347656 287.074219 C 290.347656 285.648438 290.574219 284.585938 291.035156 283.886719 C 291.503906 283.179688 292.238281 282.824219 293.238281 282.824219 C 294.207031 282.824219 294.917969 283.183594 295.378906 283.902344 C 295.847656 284.613281 296.082031 285.667969 296.082031 287.074219 Z M 295.019531 287.074219 C 295.019531 285.878906 294.878906 285.011719 294.597656 284.480469 C 294.324219 283.941406 293.871094 283.667969 293.238281 283.667969 C 292.589844 283.667969 292.121094 283.933594 291.832031 284.464844 C 291.550781 284.996094 291.410156 285.867188 291.410156 287.074219 C 291.410156 288.242188 291.550781 289.097656 291.832031 289.636719 C 292.121094 290.179688 292.582031 290.449219 293.207031 290.449219 C 293.832031 290.449219 294.289062 290.175781 294.582031 289.621094 C 294.871094 289.070312 295.019531 288.222656 295.019531 287.074219 Z M 232.878906 280.335938 "/>
<path style=" stroke:none;fill-rule:nonzero;fill:rgb(40%,40%,40%);fill-opacity:1;" d="M 326.335938 291.199219 L 326.335938 290.449219 C 326.53125 289.992188 326.773438 289.589844 327.054688 289.246094 C 327.34375 288.894531 327.648438 288.574219 327.960938 288.292969 C 328.28125 288.011719 328.59375 287.753906 328.898438 287.511719 C 329.210938 287.261719 329.492188 287.019531 329.742188 286.777344 C 329.992188 286.539062 330.195312 286.289062 330.351562 286.027344 C 330.507812 285.757812 330.585938 285.457031 330.585938 285.121094 C 330.585938 284.664062 330.449219 284.308594 330.179688 284.058594 C 329.917969 283.808594 329.554688 283.683594 329.085938 283.683594 C 328.625 283.683594 328.25 283.808594 327.960938 284.058594 C 327.679688 284.300781 327.511719 284.636719 327.460938 285.074219 L 326.382812 284.980469 C 326.453125 284.324219 326.730469 283.804688 327.210938 283.417969 C 327.699219 283.023438 328.324219 282.824219 329.085938 282.824219 C 329.90625 282.824219 330.542969 283.023438 330.992188 283.417969 C 331.4375 283.804688 331.664062 284.355469 331.664062 285.074219 C 331.664062 285.398438 331.589844 285.722656 331.445312 286.042969 C 331.296875 286.355469 331.078125 286.675781 330.789062 286.996094 C 330.507812 287.308594 329.953125 287.792969 329.132812 288.449219 C 328.683594 288.824219 328.324219 289.160156 328.054688 289.449219 C 327.792969 289.742188 327.605469 290.027344 327.492188 290.308594 L 331.804688 290.308594 L 331.804688 291.199219 Z M 338.929688 287.074219 C 338.929688 288.449219 338.683594 289.503906 338.195312 290.230469 C 337.714844 290.960938 337 291.324219 336.054688 291.324219 C 335.105469 291.324219 334.390625 290.964844 333.914062 290.246094 C 333.433594 289.519531 333.195312 288.460938 333.195312 287.074219 C 333.195312 285.648438 333.421875 284.585938 333.882812 283.886719 C 334.351562 283.179688 335.085938 282.824219 336.085938 282.824219 C 337.054688 282.824219 337.765625 283.183594 338.226562 283.902344 C 338.695312 284.613281 338.929688 285.667969 338.929688 287.074219 Z M 337.867188 287.074219 C 337.867188 285.878906 337.726562 285.011719 337.445312 284.480469 C 337.171875 283.941406 336.71875 283.667969 336.085938 283.667969 C 335.4375 283.667969 334.96875 283.933594 334.679688 284.464844 C 334.398438 284.996094 334.257812 285.867188 334.257812 287.074219 C 334.257812 288.242188 334.398438 289.097656 334.679688 289.636719 C 334.96875 290.179688 335.429688 290.449219 336.054688 290.449219 C 336.679688 290.449219 337.136719 290.175781 337.429688 289.621094 C 337.71875 289.070312 337.867188 288.222656 337.867188 287.074219 Z M 340.335938 291.199219 L 340.335938 290.449219 C 340.53125 289.992188 340.773438 289.589844 341.054688 289.246094 C 341.34375 288.894531 341.648438 288.574219 341.960938 288.292969 C 342.28125 288.011719 342.59375 287.753906 342.898438 287.511719 C 343.210938 287.261719 343.492188 287.019531 343.742188 286.777344 C 343.992188 286.539062 344.195312 286.289062 344.351562 286.027344 C 344.507812 285.757812 344.585938 285.457031 344.585938 285.121094 C 344.585938 284.664062 344.449219 284.308594 344.179688 284.058594 C 343.917969 283.808594 343.554688 283.683594 343.085938 283.683594 C 342.625 283.683594 342.25 283.808594 341.960938 284.058594 C 341.679688 284.300781 341.511719 284.636719 341.460938 285.074219 L 340.382812 284.980469 C 340.453125 284.324219 340.730469 283.804688 341.210938 283.417969 C 341.699219 283.023438 342.324219 282.824219 343.085938 282.824219 C 343.90625 282.824219 344.542969 283.023438 344.992188 283.417969 C 345.4375 283.804688 345.664062 284.355469 345.664062 285.074219 C 345.664062 285.398438 345.589844 285.722656 345.445312 286.042969 C 345.296875 286.355469 345.078125 286.675781 344.789062 286.996094 C 344.507812 287.308594 343.953125 287.792969 343.132812 288.449219 C 342.683594 288.824219 342.324219 289.160156 342.054688 289.449219 C 341.792969 289.742188 341.605469 290.027344 341.492188 290.308594 L 345.804688 290.308594 L 345.804688 291.199219 Z M 347.335938 291.199219 L 347.335938 290.449219 C 347.53125 289.992188 347.773438 289.589844 348.054688 289.246094 C 348.34375 288.894531 348.648438 288.574219 348.960938 288.292969 C 349.28125 288.011719 349.59375 287.753906 349.898438 287.511719 C 350.210938 287.261719 350.492188 287.019531 350.742188 286.777344 C 350.992188 286.539062 351.195312 286.289062 351.351562 286.027344 C 351.507812 285.757812 351.585938 285.457031 351.585938 285.121094 C 351.585938 284.664062 351.449219 284.308594 351.179688 284.058594 C 350.917969 283.808594 350.554688 283.683594 350.085938 283.683594 C 349.625 283.683594 349.25 283.808594 348.960938 284.058594 C 348.679688 284.300781 348.511719 284.636719 348.460938 285.074219 L 347.382812 284.980469 C 347.453125 284.324219 347.730469 283.804688 348.210938 283.417969 C 348.699219 283.023438 349.324219 282.824219 350.085938 282.824219 C 350.90625 282.824219 351.542969 283.023438 351.992188 283.417969 C 352.4375 283.804688 352.664062 284.355469 352.664062 285.074219 C 352.664062 285.398438 352.589844 285.722656 352.445312 286.042969 C 352.296875 286.355469 352.078125 286.675781 351.789062 286.996094 C 351.507812 287.308594 350.953125 287.792969 350.132812 288.449219 C 349.683594 288.824219 349.324219 289.160156 349.054688 289.449219 C 348.792969 289.742188 348.605469 290.027344 348.492188 290.308594 L 352.804688 290.308594 L 352.804688 291.199219 Z M 354.257812 288.480469 L 354.257812 287.542969 L 357.195312 287.542969 L 357.195312 288.480469 Z M 358.648438 291.199219 L 358.648438 290.308594 L 360.742188 290.308594 L 360.742188 283.949219 L 358.882812 285.277344 L 358.882812 284.277344 L 360.835938 282.949219 L 361.804688 282.949219 L 361.804688 290.308594 L 363.820312 290.308594 L 363.820312 291.199219 Z M 370.929688 287.074219 C 370.929688 288.449219 370.683594 289.503906 370.195312 290.230469 C 369.714844 290.960938 369 291.324219 368.054688 291.324219 C 367.105469 291.324219 366.390625 290.964844 365.914062 290.246094 C 365.433594 289.519531 365.195312 288.460938 365.195312 287.074219 C 365.195312 285.648438 365.421875 284.585938 365.882812 283.886719 C 366.351562 283.179688 367.085938 282.824219 368.085938 282.824219 C 369.054688 282.824219 369.765625 283.183594 370.226562 283.902344 C 370.695312 284.613281 370.929688 285.667969 370.929688 287.074219 Z M 369.867188 287.074219 C 369.867188 285.878906 369.726562 285.011719 369.445312 284.480469 C 369.171875 283.941406 368.71875 283.667969 368.085938 283.667969 C 367.4375 283.667969 366.96875 283.933594 366.679688 284.464844 C 366.398438 284.996094 366.257812 285.867188 366.257812 287.074219 C 366.257812 288.242188 366.398438 289.097656 366.679688 289.636719 C 366.96875 290.179688 367.429688 290.449219 368.054688 290.449219 C 368.679688 290.449219 369.136719 290.175781 369.429688 289.621094 C 369.71875 289.070312 369.867188 288.222656 369.867188 287.074219 Z M 372.257812 288.480469 L 372.257812 287.542969 L 375.195312 287.542969 L 375.195312 288.480469 Z M 376.335938 291.199219 L 376.335938 290.449219 C 376.53125 289.992188 376.773438 289.589844 377.054688 289.246094 C 377.34375 288.894531 377.648438 288.574219 377.960938 288.292969 C 378.28125 288.011719 378.59375 287.753906 378.898438 287.511719 C 379.210938 287.261719 379.492188 287.019531 379.742188 286.777344 C 379.992188 286.539062 380.195312 286.289062 380.351562 286.027344 C 380.507812 285.757812 380.585938 285.457031 380.585938 285.121094 C 380.585938 284.664062 380.449219 284.308594 380.179688 284.058594 C 379.917969 283.808594 379.554688 283.683594 379.085938 283.683594 C 378.625 283.683594 378.25 283.808594 377.960938 284.058594 C 377.679688 284.300781 377.511719 284.636719 377.460938 285.074219 L 376.382812 284.980469 C 376.453125 284.324219 376.730469 283.804688 377.210938 283.417969 C 377.699219 283.023438 378.324219 282.824219 379.085938 282.824219 C 379.90625 282.824219 380.542969 283.023438 380.992188 283.417969 C 381.4375 283.804688 381.664062 284.355469 381.664062 285.074219 C 381.664062 285.398438 381.589844 285.722656 381.445312 286.042969 C 381.296875 286.355469 381.078125 286.675781 380.789062 286.996094 C 380.507812 287.308594 379.953125 287.792969 379.132812 288.449219 C 378.683594 288.824219 378.324219 289.160156 378.054688 289.449219 C 377.792969 289.742188 377.605469 290.027344 377.492188 290.308594 L 381.804688 290.308594 L 381.804688 291.199219 Z M 383.648438 291.199219 L 383.648438 290.308594 L 385.742188 290.308594 L 385.742188 283.949219 L 383.882812 285.277344 L 383.882812 284.277344 L 385.835938 282.949219 L 386.804688 282.949219 L 386.804688 290.308594 L 388.820312 290.308594 L 388.820312 291.199219 Z M 325.726562 280.335938 "/>
<path style=" stroke:none;fill-rule:nonzero;fill:rgb(40%,40%,40%);fill-opacity:1;" d="M 419.183594 291.199219 L 419.183594 290.449219 C 419.378906 289.992188 419.621094 289.589844 419.902344 289.246094 C 420.191406 288.894531 420.496094 288.574219 420.808594 288.292969 C 421.128906 288.011719 421.441406 287.753906 421.746094 287.511719 C 422.058594 287.261719 422.339844 287.019531 422.589844 286.777344 C 422.839844 286.539062 423.042969 286.289062 423.199219 286.027344 C 423.355469 285.757812 423.433594 285.457031 423.433594 285.121094 C 423.433594 284.664062 423.296875 284.308594 423.027344 284.058594 C 422.765625 283.808594 422.402344 283.683594 421.933594 283.683594 C 421.472656 283.683594 421.097656 283.808594 420.808594 284.058594 C 420.527344 284.300781 420.359375 284.636719 420.308594 285.074219 L 419.230469 284.980469 C 419.300781 284.324219 419.578125 283.804688 420.058594 283.417969 C 420.546875 283.023438 421.171875 282.824219 421.933594 282.824219 C 422.753906 282.824219 423.390625 283.023438 423.839844 283.417969 C 424.285156 283.804688 424.511719 284.355469 424.511719 285.074219 C 424.511719 285.398438 424.4375 285.722656 424.292969 286.042969 C 424.144531 286.355469 423.925781 286.675781 423.636719 286.996094 C 423.355469 287.308594 422.800781 287.792969 421.980469 288.449219 C 421.53125 288.824219 421.171875 289.160156 420.902344 289.449219 C 420.640625 289.742188 420.453125 290.027344 420.339844 290.308594 L 424.652344 290.308594 L 424.652344 291.199219 Z M 431.777344 287.074219 C 431.777344 288.449219 431.53125 289.503906 431.042969 290.230469 C 430.5625 290.960938 429.847656 291.324219 428.902344 291.324219 C 427.953125 291.324219 427.238281 290.964844 426.761719 290.246094 C 426.28125 289.519531 426.042969 288.460938 426.042969 287.074219 C 426.042969 285.648438 426.269531 284.585938 426.730469 283.886719 C 427.199219 283.179688 427.933594 282.824219 428.933594 282.824219 C 429.902344 282.824219 430.613281 283.183594 431.074219 283.902344 C 431.542969 284.613281 431.777344 285.667969 431.777344 287.074219 Z M 430.714844 287.074219 C 430.714844 285.878906 430.574219 285.011719 430.292969 284.480469 C 430.019531 283.941406 429.566406 283.667969 428.933594 283.667969 C 428.285156 283.667969 427.816406 283.933594 427.527344 284.464844 C 427.246094 284.996094 427.105469 285.867188 427.105469 287.074219 C 427.105469 288.242188 427.246094 289.097656 427.527344 289.636719 C 427.816406 290.179688 428.277344 290.449219 428.902344 290.449219 C 429.527344 290.449219 429.984375 290.175781 430.277344 289.621094 C 430.566406 289.070312 430.714844 288.222656 430.714844 287.074219 Z M 433.183594 291.199219 L 433.183594 290.449219 C 433.378906 289.992188 433.621094 289.589844 433.902344 289.246094 C 434.191406 288.894531 434.496094 288.574219 434.808594 288.292969 C 435.128906 288.011719 435.441406 287.753906 435.746094 287.511719 C 436.058594 287.261719 436.339844 287.019531 436.589844 286.777344 C 436.839844 286.539062 437.042969 286.289062 437.199219 286.027344 C 437.355469 285.757812 437.433594 285.457031 437.433594 285.121094 C 437.433594 284.664062 437.296875 284.308594 437.027344 284.058594 C 436.765625 283.808594 436.402344 283.683594 435.933594 283.683594 C 435.472656 283.683594 435.097656 283.808594 434.808594 284.058594 C 434.527344 284.300781 434.359375 284.636719 434.308594 285.074219 L 433.230469 284.980469 C 433.300781 284.324219 433.578125 283.804688 434.058594 283.417969 C 434.546875 283.023438 435.171875 282.824219 435.933594 282.824219 C 436.753906 282.824219 437.390625 283.023438 437.839844 283.417969 C 438.285156 283.804688 438.511719 284.355469 438.511719 285.074219 C 438.511719 285.398438 438.4375 285.722656 438.292969 286.042969 C 438.144531 286.355469 437.925781 286.675781 437.636719 286.996094 C 437.355469 287.308594 436.800781 287.792969 435.980469 288.449219 C 435.53125 288.824219 435.171875 289.160156 434.902344 289.449219 C 434.640625 289.742188 434.453125 290.027344 434.339844 290.308594 L 438.652344 290.308594 L 438.652344 291.199219 Z M 440.183594 291.199219 L 440.183594 290.449219 C 440.378906 289.992188 440.621094 289.589844 440.902344 289.246094 C 441.191406 288.894531 441.496094 288.574219 441.808594 288.292969 C 442.128906 288.011719 442.441406 287.753906 442.746094 287.511719 C 443.058594 287.261719 443.339844 287.019531 443.589844 286.777344 C 443.839844 286.539062 444.042969 286.289062 444.199219 286.027344 C 444.355469 285.757812 444.433594 285.457031 444.433594 285.121094 C 444.433594 284.664062 444.296875 284.308594 444.027344 284.058594 C 443.765625 283.808594 443.402344 283.683594 442.933594 283.683594 C 442.472656 283.683594 442.097656 283.808594 441.808594 284.058594 C 441.527344 284.300781 441.359375 284.636719 441.308594 285.074219 L 440.230469 284.980469 C 440.300781 284.324219 440.578125 283.804688 441.058594 283.417969 C 441.546875 283.023438 442.171875 282.824219 442.933594 282.824219 C 443.753906 282.824219 444.390625 283.023438 444.839844 283.417969 C 445.285156 283.804688 445.511719 284.355469 445.511719 285.074219 C 445.511719 285.398438 445.4375 285.722656 445.292969 286.042969 C 445.144531 286.355469 444.925781 286.675781 444.636719 286.996094 C 444.355469 287.308594 443.800781 287.792969 442.980469 288.449219 C 442.53125 288.824219 442.171875 289.160156 441.902344 289.449219 C 441.640625 289.742188 441.453125 290.027344 441.339844 290.308594 L 445.652344 290.308594 L 445.652344 291.199219 Z M 447.105469 288.480469 L 447.105469 287.542969 L 450.042969 287.542969 L 450.042969 288.480469 Z M 451.496094 291.199219 L 451.496094 290.308594 L 453.589844 290.308594 L 453.589844 283.949219 L 451.730469 285.277344 L 451.730469 284.277344 L 453.683594 282.949219 L 454.652344 282.949219 L 454.652344 290.308594 L 456.667969 290.308594 L 456.667969 291.199219 Z M 463.777344 287.074219 C 463.777344 288.449219 463.53125 289.503906 463.042969 290.230469 C 462.5625 290.960938 461.847656 291.324219 460.902344 291.324219 C 459.953125 291.324219 459.238281 290.964844 458.761719 290.246094 C 458.28125 289.519531 458.042969 288.460938 458.042969 287.074219 C 458.042969 285.648438 458.269531 284.585938 458.730469 283.886719 C 459.199219 283.179688 459.933594 282.824219 460.933594 282.824219 C 461.902344 282.824219 462.613281 283.183594 463.074219 283.902344 C 463.542969 284.613281 463.777344 285.667969 463.777344 287.074219 Z M 462.714844 287.074219 C 462.714844 285.878906 462.574219 285.011719 462.292969 284.480469 C 462.019531 283.941406 461.566406 283.667969 460.933594 283.667969 C 460.285156 283.667969 459.816406 283.933594 459.527344 284.464844 C 459.246094 284.996094 459.105469 285.867188 459.105469 287.074219 C 459.105469 288.242188 459.246094 289.097656 459.527344 289.636719 C 459.816406 290.179688 460.277344 290.449219 460.902344 290.449219 C 461.527344 290.449219 461.984375 290.175781 462.277344 289.621094 C 462.566406 289.070312 462.714844 288.222656 462.714844 287.074219 Z M 465.105469 288.480469 L 465.105469 287.542969 L 468.042969 287.542969 L 468.042969 288.480469 Z M 469.183594 291.199219 L 469.183594 290.449219 C 469.378906 289.992188 469.621094 289.589844 469.902344 289.246094 C 470.191406 288.894531 470.496094 288.574219 470.808594 288.292969 C 471.128906 288.011719 471.441406 287.753906 471.746094 287.511719 C 472.058594 287.261719 472.339844 287.019531 472.589844 286.777344 C 472.839844 286.539062 473.042969 286.289062 473.199219 286.027344 C 473.355469 285.757812 473.433594 285.457031 473.433594 285.121094 C 473.433594 284.664062 473.296875 284.308594 473.027344 284.058594 C 472.765625 283.808594 472.402344 283.683594 471.933594 283.683594 C 471.472656 283.683594 471.097656 283.808594 470.808594 284.058594 C 470.527344 284.300781 470.359375 284.636719 470.308594 285.074219 L 469.230469 284.980469 C 469.300781 284.324219 469.578125 283.804688 470.058594 283.417969 C 470.546875 283.023438 471.171875 282.824219 471.933594 282.824219 C 472.753906 282.824219 473.390625 283.023438 473.839844 283.417969 C 474.285156 283.804688 474.511719 284.355469 474.511719 285.074219 C 474.511719 285.398438 474.4375 285.722656 474.292969 286.042969 C 474.144531 286.355469 473.925781 286.675781 473.636719 286.996094 C 473.355469 287.308594 472.800781 287.792969 471.980469 288.449219 C 471.53125 288.824219 471.171875 289.160156 470.902344 289.449219 C 470.640625 289.742188 470.453125 290.027344 470.339844 290.308594 L 474.652344 290.308594 L 474.652344 291.199219 Z M 476.183594 291.199219 L 476.183594 290.449219 C 476.378906 289.992188 476.621094 289.589844 476.902344 289.246094 C 477.191406 288.894531 477.496094 288.574219 477.808594 288.292969 C 478.128906 288.011719 478.441406 287.753906 478.746094 287.511719 C 479.058594 287.261719 479.339844 287.019531 479.589844 286.777344 C 479.839844 286.539062 480.042969 286.289062 480.199219 286.027344 C 480.355469 285.757812 480.433594 285.457031 480.433594 285.121094 C 480.433594 284.664062 480.296875 284.308594 480.027344 284.058594 C 479.765625 283.808594 479.402344 283.683594 478.933594 283.683594 C 478.472656 283.683594 478.097656 283.808594 477.808594 284.058594 C 477.527344 284.300781 477.359375 284.636719 477.308594 285.074219 L 476.230469 284.980469 C 476.300781 284.324219 476.578125 283.804688 477.058594 283.417969 C 477.546875 283.023438 478.171875 282.824219 478.933594 282.824219 C 479.753906 282.824219 480.390625 283.023438 480.839844 283.417969 C 481.285156 283.804688 481.511719 284.355469 481.511719 285.074219 C 481.511719 285.398438 481.4375 285.722656 481.292969 286.042969 C 481.144531 286.355469 480.925781 286.675781 480.636719 286.996094 C 480.355469 287.308594 479.800781 287.792969 478.980469 288.449219 C 478.53125 288.824219 478.171875 289.160156 477.902344 289.449219 C 477.640625 289.742188 477.453125 290.027344 477.339844 290.308594 L 481.652344 290.308594 L 481.652344 291.199219 Z M 418.574219 280.335938 "/>
<path style="fill:none;stroke-width:1;stroke-linecap:butt;stroke-linejoin:miter;stroke:rgb(0%,0%,0%);stroke-opacity:0.0980392;stroke-miterlimit:10;" d="M 22.761719 32.5 L 32 32.5 M 33 32.5 L 497 32.5 "/>
<path style="fill:none;stroke-width:1;stroke-linecap:butt;stroke-linejoin:miter;stroke:rgb(0%,0%,0%);stroke-opacity:0.0980392;stroke-miterlimit:10;" d="M 22.761719 71.5 L 32 71.5 M 33 71.5 L 497 71.5 "/>
<path style="fill:none;stroke-width:1;stroke-linecap:butt;stroke-linejoin:miter;stroke:rgb(0%,0%,0%);stroke-opacity:0.0980392;stroke-miterlimit:10;" d="M 22.761719 111.5 L 32 111.5 M 33 111.5 L 497 111.5 "/>
<path style="fill:none;stroke-width:1;stroke-linecap:butt;stroke-linejoin:miter;stroke:rgb(0%,0%,0%);stroke-opacity:0.0980392;stroke-miterlimit:10;" d="M 22.761719 150.5 L 32 150.5 M 33 150.5 L 497 150.5 "/>
<path style="fill:none;stroke-width:1;stroke-linecap:butt;stroke-linejoin:miter;stroke:rgb(0%,0%,0%);stroke-opacity:0.0980392;stroke-miterlimit:10;" d="M 22.761719 190.5 L 32 190.5 M 33 190.5 L 497 190.5 "/>
<path style="fill:none;stroke-width:1;stroke-linecap:butt;stroke-linejoin:miter;stroke:rgb(0%,0%,0%);stroke-opacity:0.0980392;stroke-miterlimit:10;" d="M 22.761719 230.5 L 32 230.5 M 33 230.5 L 497 230.5 "/>
<path style="fill:none;stroke-width:1;stroke-linecap:butt;stroke-linejoin:miter;stroke:rgb(0%,0%,0%);stroke-opacity:0.247059;stroke-miterlimit:10;" d="M 22.761719 269.5 L 32 269.5 M 33 269.5 L 497 269.5 "/>
<path style="fill:none;stroke-width:1;stroke-linecap:butt;stroke-linejoin:miter;stroke:rgb(0%,0%,0%);stroke-opacity:0.0980392;stroke-miterlimit:10;" d="M 32.5 32 L 32.5 270 "/>
<path style=" stroke:none;fill-rule:nonzero;fill:rgb(40%,40%,40%);fill-opacity:1;" d="M 11.902344 33.878906 C 11.902344 34.640625 11.65625 35.234375 11.167969 35.660156 C 10.6875 36.078125 10 36.285156 9.105469 36.285156 C 8.269531 36.285156 7.605469 36.097656 7.105469 35.722656 C 6.605469 35.339844 6.308594 34.777344 6.214844 34.035156 L 7.308594 33.941406 C 7.453125 34.921875 8.050781 35.410156 9.105469 35.410156 C 9.636719 35.410156 10.050781 35.28125 10.355469 35.019531 C 10.65625 34.75 10.808594 34.359375 10.808594 33.847656 C 10.808594 33.402344 10.636719 33.050781 10.292969 32.800781 C 9.949219 32.542969 9.449219 32.410156 8.792969 32.410156 L 8.199219 32.410156 L 8.199219 31.503906 L 8.777344 31.503906 C 9.347656 31.503906 9.792969 31.378906 10.105469 31.128906 C 10.425781 30.871094 10.589844 30.519531 10.589844 30.082031 C 10.589844 29.636719 10.457031 29.285156 10.199219 29.035156 C 9.949219 28.777344 9.5625 28.644531 9.042969 28.644531 C 8.582031 28.644531 8.207031 28.765625 7.917969 29.003906 C 7.636719 29.246094 7.46875 29.582031 7.417969 30.019531 L 6.355469 29.925781 C 6.4375 29.25 6.71875 28.722656 7.199219 28.347656 C 7.675781 27.972656 8.296875 27.785156 9.058594 27.785156 C 9.890625 27.785156 10.535156 27.980469 10.996094 28.363281 C 11.453125 28.75 11.683594 29.285156 11.683594 29.972656 C 11.683594 30.496094 11.53125 30.921875 11.230469 31.253906 C 10.9375 31.589844 10.511719 31.8125 9.949219 31.925781 L 9.949219 31.941406 C 10.5625 32.015625 11.042969 32.222656 11.386719 32.566406 C 11.730469 32.910156 11.902344 33.347656 11.902344 33.878906 Z M 13.855469 36.160156 L 13.855469 34.878906 L 14.996094 34.878906 L 14.996094 36.160156 Z M 21.964844 32.035156 C 21.964844 33.410156 21.71875 34.464844 21.230469 35.191406 C 20.75 35.921875 20.035156 36.285156 19.089844 36.285156 C 18.140625 36.285156 17.425781 35.925781 16.949219 35.207031 C 16.46875 34.480469 16.230469 33.421875 16.230469 32.035156 C 16.230469 30.609375 16.457031 29.546875 16.917969 28.847656 C 17.386719 28.140625 18.121094 27.785156 19.121094 27.785156 C 20.089844 27.785156 20.800781 28.144531 21.261719 28.863281 C 21.730469 29.574219 21.964844 30.628906 21.964844 32.035156 Z M 20.902344 32.035156 C 20.902344 30.839844 20.761719 29.972656 20.480469 29.441406 C 20.207031 28.902344 19.753906 28.628906 19.121094 28.628906 C 18.472656 28.628906 18.003906 28.894531 17.714844 29.425781 C 17.433594 29.957031 17.292969 30.828125 17.292969 32.035156 C 17.292969 33.203125 17.433594 34.058594 17.714844 34.597656 C 18.003906 35.140625 18.464844 35.410156 19.089844 35.410156 C 19.714844 35.410156 20.171875 35.136719 20.464844 34.582031 C 20.753906 34.03125 20.902344 33.183594 20.902344 32.035156 Z M 5.761719 25.296875 "/>
<path style=" stroke:none;fill-rule:nonzero;fill:rgb(40%,40%,40%);fill-opacity:1;" d="M 6.371094 75.800781 L 6.371094 75.050781 C 6.566406 74.59375 6.808594 74.191406 7.089844 73.847656 C 7.378906 73.496094 7.683594 73.175781 7.996094 72.894531 C 8.316406 72.613281 8.628906 72.355469 8.933594 72.113281 C 9.246094 71.863281 9.527344 71.621094 9.777344 71.378906 C 10.027344 71.140625 10.230469 70.890625 10.386719 70.628906 C 10.542969 70.359375 10.621094 70.058594 10.621094 69.722656 C 10.621094 69.265625 10.484375 68.910156 10.214844 68.660156 C 9.953125 68.410156 9.589844 68.285156 9.121094 68.285156 C 8.660156 68.285156 8.285156 68.410156 7.996094 68.660156 C 7.714844 68.902344 7.546875 69.238281 7.496094 69.675781 L 6.417969 69.582031 C 6.488281 68.925781 6.765625 68.40625 7.246094 68.019531 C 7.734375 67.625 8.359375 67.425781 9.121094 67.425781 C 9.941406 67.425781 10.578125 67.625 11.027344 68.019531 C 11.472656 68.40625 11.699219 68.957031 11.699219 69.675781 C 11.699219 70 11.625 70.324219 11.480469 70.644531 C 11.332031 70.957031 11.113281 71.277344 10.824219 71.597656 C 10.542969 71.910156 9.988281 72.394531 9.167969 73.050781 C 8.71875 73.425781 8.359375 73.761719 8.089844 74.050781 C 7.828125 74.34375 7.640625 74.628906 7.527344 74.910156 L 11.839844 74.910156 L 11.839844 75.800781 Z M 13.855469 75.800781 L 13.855469 74.519531 L 14.996094 74.519531 L 14.996094 75.800781 Z M 21.933594 73.113281 C 21.933594 73.980469 21.671875 74.667969 21.152344 75.175781 C 20.640625 75.675781 19.921875 75.925781 18.996094 75.925781 C 18.234375 75.925781 17.613281 75.761719 17.136719 75.425781 C 16.667969 75.082031 16.371094 74.59375 16.246094 73.957031 L 17.308594 73.832031 C 17.527344 74.644531 18.097656 75.050781 19.027344 75.050781 C 19.589844 75.050781 20.03125 74.886719 20.355469 74.550781 C 20.675781 74.207031 20.839844 73.734375 20.839844 73.128906 C 20.839844 72.609375 20.675781 72.191406 20.355469 71.878906 C 20.03125 71.558594 19.59375 71.394531 19.042969 71.394531 C 18.761719 71.394531 18.496094 71.441406 18.246094 71.535156 C 18.003906 71.621094 17.761719 71.769531 17.511719 71.988281 L 16.480469 71.988281 L 16.761719 67.550781 L 21.449219 67.550781 L 21.449219 68.441406 L 17.714844 68.441406 L 17.558594 71.066406 C 18.015625 70.714844 18.582031 70.535156 19.261719 70.535156 C 20.074219 70.535156 20.71875 70.777344 21.199219 71.253906 C 21.6875 71.722656 21.933594 72.34375 21.933594 73.113281 Z M 5.761719 64.9375 "/>
<path style=" stroke:none;fill-rule:nonzero;fill:rgb(40%,40%,40%);fill-opacity:1;" d="M 6.371094 115.441406 L 6.371094 114.691406 C 6.566406 114.234375 6.808594 113.832031 7.089844 113.488281 C 7.378906 113.136719 7.683594 112.816406 7.996094 112.535156 C 8.316406 112.253906 8.628906 111.996094 8.933594 111.753906 C 9.246094 111.503906 9.527344 111.261719 9.777344 111.019531 C 10.027344 110.78125 10.230469 110.53125 10.386719 110.269531 C 10.542969 110 10.621094 109.699219 10.621094 109.363281 C 10.621094 108.90625 10.484375 108.550781 10.214844 108.300781 C 9.953125 108.050781 9.589844 107.925781 9.121094 107.925781 C 8.660156 107.925781 8.285156 108.050781 7.996094 108.300781 C 7.714844 108.542969 7.546875 108.878906 7.496094 109.316406 L 6.417969 109.222656 C 6.488281 108.566406 6.765625 108.046875 7.246094 107.660156 C 7.734375 107.265625 8.359375 107.066406 9.121094 107.066406 C 9.941406 107.066406 10.578125 107.265625 11.027344 107.660156 C 11.472656 108.046875 11.699219 108.597656 11.699219 109.316406 C 11.699219 109.640625 11.625 109.964844 11.480469 110.285156 C 11.332031 110.597656 11.113281 110.917969 10.824219 111.238281 C 10.542969 111.550781 9.988281 112.035156 9.167969 112.691406 C 8.71875 113.066406 8.359375 113.402344 8.089844 113.691406 C 7.828125 113.984375 7.640625 114.269531 7.527344 114.550781 L 11.839844 114.550781 L 11.839844 115.441406 Z M 13.855469 115.441406 L 13.855469 114.160156 L 14.996094 114.160156 L 14.996094 115.441406 Z M 21.964844 111.316406 C 21.964844 112.691406 21.71875 113.746094 21.230469 114.472656 C 20.75 115.203125 20.035156 115.566406 19.089844 115.566406 C 18.140625 115.566406 17.425781 115.207031 16.949219 114.488281 C 16.46875 113.761719 16.230469 112.703125 16.230469 111.316406 C 16.230469 109.890625 16.457031 108.828125 16.917969 108.128906 C 17.386719 107.421875 18.121094 107.066406 19.121094 107.066406 C 20.089844 107.066406 20.800781 107.425781 21.261719 108.144531 C 21.730469 108.855469 21.964844 109.910156 21.964844 111.316406 Z M 20.902344 111.316406 C 20.902344 110.121094 20.761719 109.253906 20.480469 108.722656 C 20.207031 108.183594 19.753906 107.910156 19.121094 107.910156 C 18.472656 107.910156 18.003906 108.175781 17.714844 108.707031 C 17.433594 109.238281 17.292969 110.109375 17.292969 111.316406 C 17.292969 112.484375 17.433594 113.339844 17.714844 113.878906 C 18.003906 114.421875 18.464844 114.691406 19.089844 114.691406 C 19.714844 114.691406 20.171875 114.417969 20.464844 113.863281 C 20.753906 113.3125 20.902344 112.464844 20.902344 111.316406 Z M 5.761719 104.578125 "/>
<path style=" stroke:none;fill-rule:nonzero;fill:rgb(40%,40%,40%);fill-opacity:1;" d="M 6.683594 155.082031 L 6.683594 154.191406 L 8.777344 154.191406 L 8.777344 147.832031 L 6.917969 149.160156 L 6.917969 148.160156 L 8.871094 146.832031 L 9.839844 146.832031 L 9.839844 154.191406 L 11.855469 154.191406 L 11.855469 155.082031 Z M 13.855469 155.082031 L 13.855469 153.800781 L 14.996094 153.800781 L 14.996094 155.082031 Z M 21.933594 152.394531 C 21.933594 153.261719 21.671875 153.949219 21.152344 154.457031 C 20.640625 154.957031 19.921875 155.207031 18.996094 155.207031 C 18.234375 155.207031 17.613281 155.042969 17.136719 154.707031 C 16.667969 154.363281 16.371094 153.875 16.246094 153.238281 L 17.308594 153.113281 C 17.527344 153.925781 18.097656 154.332031 19.027344 154.332031 C 19.589844 154.332031 20.03125 154.167969 20.355469 153.832031 C 20.675781 153.488281 20.839844 153.015625 20.839844 152.410156 C 20.839844 151.890625 20.675781 151.472656 20.355469 151.160156 C 20.03125 150.839844 19.59375 150.675781 19.042969 150.675781 C 18.761719 150.675781 18.496094 150.722656 18.246094 150.816406 C 18.003906 150.902344 17.761719 151.050781 17.511719 151.269531 L 16.480469 151.269531 L 16.761719 146.832031 L 21.449219 146.832031 L 21.449219 147.722656 L 17.714844 147.722656 L 17.558594 150.347656 C 18.015625 149.996094 18.582031 149.816406 19.261719 149.816406 C 20.074219 149.816406 20.71875 150.058594 21.199219 150.535156 C 21.6875 151.003906 21.933594 151.625 21.933594 152.394531 Z M 5.761719 144.21875 "/>
<path style=" stroke:none;fill-rule:nonzero;fill:rgb(40%,40%,40%);fill-opacity:1;" d="M 6.683594 194.71875 L 6.683594 193.828125 L 8.777344 193.828125 L 8.777344 187.46875 L 6.917969 188.796875 L 6.917969 187.796875 L 8.871094 186.46875 L 9.839844 186.46875 L 9.839844 193.828125 L 11.855469 193.828125 L 11.855469 194.71875 Z M 13.855469 194.71875 L 13.855469 193.4375 L 14.996094 193.4375 L 14.996094 194.71875 Z M 21.964844 190.59375 C 21.964844 191.96875 21.71875 193.023438 21.230469 193.75 C 20.75 194.480469 20.035156 194.84375 19.089844 194.84375 C 18.140625 194.84375 17.425781 194.484375 16.949219 193.765625 C 16.46875 193.039062 16.230469 191.980469 16.230469 190.59375 C 16.230469 189.167969 16.457031 188.105469 16.917969 187.40625 C 17.386719 186.699219 18.121094 186.34375 19.121094 186.34375 C 20.089844 186.34375 20.800781 186.703125 21.261719 187.421875 C 21.730469 188.132812 21.964844 189.1875 21.964844 190.59375 Z M 20.902344 190.59375 C 20.902344 189.398438 20.761719 188.53125 20.480469 188 C 20.207031 187.460938 19.753906 187.1875 19.121094 187.1875 C 18.472656 187.1875 18.003906 187.453125 17.714844 187.984375 C 17.433594 188.515625 17.292969 189.386719 17.292969 190.59375 C 17.292969 191.761719 17.433594 192.617188 17.714844 193.15625 C 18.003906 193.699219 18.464844 193.96875 19.089844 193.96875 C 19.714844 193.96875 20.171875 193.695312 20.464844 193.140625 C 20.753906 192.589844 20.902344 191.742188 20.902344 190.59375 Z M 5.761719 183.855469 "/>
<path style=" stroke:none;fill-rule:nonzero;fill:rgb(40%,40%,40%);fill-opacity:1;" d="M 11.964844 230.234375 C 11.964844 231.609375 11.71875 232.664062 11.230469 233.390625 C 10.75 234.121094 10.035156 234.484375 9.089844 234.484375 C 8.140625 234.484375 7.425781 234.125 6.949219 233.40625 C 6.46875 232.679688 6.230469 231.621094 6.230469 230.234375 C 6.230469 228.808594 6.457031 227.746094 6.917969 227.046875 C 7.386719 226.339844 8.121094 225.984375 9.121094 225.984375 C 10.089844 225.984375 10.800781 226.34375 11.261719 227.0625 C 11.730469 227.773438 11.964844 228.828125 11.964844 230.234375 Z M 10.902344 230.234375 C 10.902344 229.039062 10.761719 228.171875 10.480469 227.640625 C 10.207031 227.101562 9.753906 226.828125 9.121094 226.828125 C 8.472656 226.828125 8.003906 227.09375 7.714844 227.625 C 7.433594 228.15625 7.292969 229.027344 7.292969 230.234375 C 7.292969 231.402344 7.433594 232.257812 7.714844 232.796875 C 8.003906 233.339844 8.464844 233.609375 9.089844 233.609375 C 9.714844 233.609375 10.171875 233.335938 10.464844 232.78125 C 10.753906 232.230469 10.902344 231.382812 10.902344 230.234375 Z M 13.855469 234.359375 L 13.855469 233.078125 L 14.996094 233.078125 L 14.996094 234.359375 Z M 21.933594 231.671875 C 21.933594 232.539062 21.671875 233.226562 21.152344 233.734375 C 20.640625 234.234375 19.921875 234.484375 18.996094 234.484375 C 18.234375 234.484375 17.613281 234.320312 17.136719 233.984375 C 16.667969 233.640625 16.371094 233.152344 16.246094 232.515625 L 17.308594 232.390625 C 17.527344 233.203125 18.097656 233.609375 19.027344 233.609375 C 19.589844 233.609375 20.03125 233.445312 20.355469 233.109375 C 20.675781 232.765625 20.839844 232.292969 20.839844 231.6875 C 20.839844 231.167969 20.675781 230.75 20.355469 230.4375 C 20.03125 230.117188 19.59375 229.953125 19.042969 229.953125 C 18.761719 229.953125 18.496094 230 18.246094 230.09375 C 18.003906 230.179688 17.761719 230.328125 17.511719 230.546875 L 16.480469 230.546875 L 16.761719 226.109375 L 21.449219 226.109375 L 21.449219 227 L 17.714844 227 L 17.558594 229.625 C 18.015625 229.273438 18.582031 229.09375 19.261719 229.09375 C 20.074219 229.09375 20.71875 229.335938 21.199219 229.8125 C 21.6875 230.28125 21.933594 230.902344 21.933594 231.671875 Z M 5.761719 223.496094 "/>
<path style=" stroke:none;fill-rule:nonzero;fill:rgb(40%,40%,40%);fill-opacity:1;" d="M 21.964844 269.875 C 21.964844 271.25 21.71875 272.304688 21.230469 273.03125 C 20.75 273.761719 20.035156 274.125 19.089844 274.125 C 18.140625 274.125 17.425781 273.765625 16.949219 273.046875 C 16.46875 272.320312 16.230469 271.261719 16.230469 269.875 C 16.230469 268.449219 16.457031 267.386719 16.917969 266.6875 C 17.386719 265.980469 18.121094 265.625 19.121094 265.625 C 20.089844 265.625 20.800781 265.984375 21.261719 266.703125 C 21.730469 267.414062 21.964844 268.46875 21.964844 269.875 Z M 20.902344 269.875 C 20.902344 268.679688 20.761719 267.8125 20.480469 267.28125 C 20.207031 266.742188 19.753906 266.46875 19.121094 266.46875 C 18.472656 266.46875 18.003906 266.734375 17.714844 267.265625 C 17.433594 267.796875 17.292969 268.667969 17.292969 269.875 C 17.292969 271.042969 17.433594 271.898438 17.714844 272.4375 C 18.003906 272.980469 18.464844 273.25 19.089844 273.25 C 19.714844 273.25 20.171875 272.976562 20.464844 272.421875 C 20.753906 271.871094 20.902344 271.023438 20.902344 269.875 Z M 15.761719 263.136719 "/>
<path style=" stroke:none;fill-rule:nonzero;fill:rgb(18.039216%,47.058824%,94.901961%);fill-opacity:0.776471;" d="M 45.757812 111.28125 L 112.609375 111.28125 L 112.609375 190.5625 L 45.757812 190.5625 Z M 45.757812 111.28125 "/>
<path style=" stroke:none;fill-rule:nonzero;fill:rgb(18.039216%,47.058824%,94.901961%);fill-opacity:0.776471;" d="M 324.300781 32 L 391.152344 32 L 391.152344 111.28125 L 324.300781 111.28125 Z M 324.300781 32 "/>
<g clip-path="url(#clip1)" clip-rule="nonzero">
<path style=" stroke:none;fill-rule:nonzero;fill:rgb(94.509804%,18.039216%,18.823529%);fill-opacity:0.776471;" d="M 45.757812 190.558594 L 112.609375 190.558594 L 112.609375 269.839844 L 45.757812 269.839844 Z M 45.757812 190.558594 "/>
</g>
<g clip-path="url(#clip2)" clip-rule="nonzero">
<path style=" stroke:none;fill-rule:nonzero;fill:rgb(94.509804%,18.039216%,18.823529%);fill-opacity:0.776471;" d="M 324.300781 111.28125 L 391.152344 111.28125 L 391.152344 269.839844 L 324.300781 269.839844 Z M 324.300781 111.28125 "/>
</g>
<g clip-path="url(#clip3)" clip-rule="nonzero">
<path style=" stroke:none;fill-rule:nonzero;fill:rgb(94.509804%,18.039216%,18.823529%);fill-opacity:0.776471;" d="M 417.152344 190.558594 L 484.003906 190.558594 L 484.003906 269.839844 L 417.152344 269.839844 Z M 417.152344 190.558594 "/>
</g>
</g>
</svg>
